<?xml version="1.0" encoding="utf-8"?>
<!-- Generator: Adobe Illustrator 23.0.2, SVG Export Plug-In . SVG Version: 6.00 Build 0)  -->
<svg version="1.1" id="Layer_1" xmlns="http://www.w3.org/2000/svg" xmlns:xlink="http://www.w3.org/1999/xlink" x="0px" y="0px"
	 viewBox="0 0 612 378.03" style="enable-background:new 0 0 612 378.03;" xml:space="preserve">
<style type="text/css">
	.st0{fill:#D1D3D4;}
	.st1{fill:#0069A4;}
	.st2{fill:#E6E7E8;}
	.st3{fill:#BCBEC0;}
	.st4{fill:#088743;}
</style>
<g>
	<path class="st0" d="M160.88,163.74h-39.04c-5.57,0-10.14-4.56-10.14-10.14V92.38c0-5.57,4.56-10.14,10.14-10.14h39.04
		c5.57,0,10.14,4.56,10.14,10.14v61.23C171.01,159.18,166.45,163.74,160.88,163.74z"/>
	<path class="st1" d="M579.04,193.29H34.4c-1.63,0-2.96-1.33-2.96-2.96l0,0c0-1.63,1.33-2.96,2.96-2.96h544.64
		c1.63,0,2.96,1.33,2.96,2.96l0,0C582,191.96,580.67,193.29,579.04,193.29z"/>
	<path class="st0" d="M406.5,172.19h-38.06c-5.84,0-10.62-4.78-10.62-10.62V99.07c0-5.84,4.78-10.62,10.62-10.62h38.06
		c5.84,0,10.62,4.78,10.62,10.62v62.49C417.13,167.41,412.35,172.19,406.5,172.19z"/>
	<path class="st2" d="M488.8,174.71h-28.92c-6.38,0-11.61-5.22-11.61-11.61V71.83c0-6.38,5.22-11.61,11.61-11.61h28.92
		c6.38,0,11.61,5.22,11.61,11.61v91.27C500.41,169.49,495.19,174.71,488.8,174.71z"/>
	<path class="st3" d="M337.66,173.5h-98.82c-6.71,0-12.2-5.49-12.2-12.2v-39.88c0-6.71,5.49-12.2,12.2-12.2h98.82
		c6.71,0,12.2,5.49,12.2,12.2v39.88C349.86,168.01,344.37,173.5,337.66,173.5z"/>
	<path class="st2" d="M208.77,168.74h-24.91c-3.91,0-7.1-3.2-7.1-7.1v-54.43c0-3.91,3.2-7.1,7.1-7.1h24.91c3.91,0,7.1,3.2,7.1,7.1
		v54.43C215.87,165.54,212.67,168.74,208.77,168.74z"/>
	<g>
		<path d="M42.94,256.29v-49.78H63.7c2.1,0,4.04,0.44,5.82,1.33c1.78,0.89,3.3,2.07,4.56,3.54c1.26,1.47,2.25,3.13,2.98,4.98
			c0.72,1.85,1.09,3.71,1.09,5.57c0,1.82-0.28,3.59-0.84,5.29c-0.56,1.71-1.36,3.24-2.38,4.59c-1.03,1.36-2.27,2.48-3.72,3.37
			c-1.45,0.89-3.04,1.47-4.77,1.75l12.41,19.35h-4.14L62.65,237.5H46.52v18.79H42.94z M46.52,234.2h17.46
			c1.59,0,3.04-0.35,4.35-1.05c1.31-0.7,2.43-1.62,3.37-2.77c0.93-1.15,1.65-2.45,2.14-3.93c0.49-1.47,0.74-2.98,0.74-4.52
			c0-1.59-0.29-3.12-0.88-4.59c-0.59-1.47-1.38-2.77-2.38-3.89s-2.17-2.02-3.51-2.7c-1.33-0.68-2.77-1.02-4.31-1.02H46.52V234.2z"/>
		<path d="M123.65,256.64c-3.46,0-6.62-0.72-9.47-2.17c-2.85-1.45-5.31-3.34-7.36-5.68c-2.06-2.34-3.65-5.02-4.77-8.06
			c-1.12-3.04-1.68-6.15-1.68-9.33c0-3.32,0.6-6.5,1.79-9.54c1.19-3.04,2.83-5.73,4.91-8.06c2.08-2.34,4.55-4.2,7.4-5.57
			c2.85-1.38,5.94-2.07,9.26-2.07c3.46,0,6.61,0.74,9.47,2.21c2.85,1.47,5.29,3.4,7.33,5.78s3.61,5.08,4.73,8.1
			c1.12,3.01,1.68,6.07,1.68,9.15c0,3.37-0.6,6.57-1.79,9.61c-1.19,3.04-2.83,5.71-4.91,8.03c-2.08,2.31-4.54,4.16-7.36,5.54
			C130.04,255.95,126.97,256.64,123.65,256.64z M103.95,231.4c0,2.85,0.48,5.6,1.44,8.24c0.96,2.64,2.31,4.98,4.07,7.01
			s3.83,3.66,6.24,4.87c2.41,1.22,5.06,1.82,7.96,1.82c2.99,0,5.69-0.63,8.1-1.89c2.41-1.26,4.48-2.93,6.21-5.01
			c1.73-2.08,3.06-4.43,4-7.05c0.93-2.62,1.4-5.28,1.4-7.99c0-2.85-0.49-5.6-1.47-8.24c-0.98-2.64-2.35-4.98-4.1-7.01
			c-1.75-2.03-3.83-3.66-6.24-4.87c-2.41-1.21-5.04-1.82-7.89-1.82c-2.99,0-5.7,0.63-8.13,1.89c-2.43,1.26-4.5,2.93-6.2,5.01
			c-1.71,2.08-3.03,4.43-3.96,7.05C104.41,226.02,103.95,228.69,103.95,231.4z"/>
		<path d="M168.39,231.05c0-2.99,0.53-5.97,1.58-8.94c1.05-2.97,2.58-5.62,4.59-7.96c2.01-2.34,4.48-4.24,7.4-5.71
			c2.92-1.47,6.25-2.21,9.99-2.21c4.44,0,8.23,1.02,11.36,3.05c3.13,2.03,5.44,4.64,6.94,7.82l-2.94,1.68
			c-0.84-1.73-1.86-3.18-3.05-4.35c-1.19-1.17-2.48-2.11-3.86-2.84c-1.38-0.72-2.82-1.25-4.31-1.58c-1.5-0.33-2.97-0.49-4.42-0.49
			c-3.18,0-5.98,0.64-8.41,1.93c-2.43,1.29-4.49,2.96-6.17,5.01c-1.68,2.06-2.96,4.38-3.82,6.98c-0.87,2.59-1.3,5.2-1.3,7.82
			c0,2.94,0.51,5.75,1.54,8.41c1.03,2.66,2.43,5.01,4.21,7.05c1.78,2.03,3.88,3.66,6.31,4.87c2.43,1.22,5.05,1.82,7.85,1.82
			c1.49,0,3.03-0.19,4.59-0.56c1.57-0.37,3.09-0.96,4.56-1.75c1.47-0.79,2.84-1.81,4.1-3.05c1.26-1.24,2.31-2.7,3.16-4.38l3.02,1.47
			c-0.84,1.87-1.98,3.53-3.4,4.98c-1.43,1.45-3.03,2.66-4.8,3.65c-1.78,0.98-3.66,1.72-5.64,2.21c-1.99,0.49-3.94,0.74-5.86,0.74
			c-3.41,0-6.53-0.75-9.36-2.24c-2.83-1.49-5.27-3.45-7.33-5.85c-2.06-2.41-3.66-5.14-4.8-8.2
			C168.96,237.35,168.39,234.23,168.39,231.05z"/>
		<path d="M273.7,206.51v49.78h-3.58v-23.84h-31.41v23.84h-3.58v-49.78h3.58v22.72h31.41v-22.72H273.7z"/>
		<path d="M334.84,253.06v3.23h-33.17v-49.78h32.53v3.23h-28.96v19.56h25.31v3.09h-25.31v20.68H334.84z"/>
		<path d="M387.78,214.78c-3.23-3.6-7.78-5.4-13.67-5.4c-4.86,0-8.4,0.92-10.62,2.77c-2.22,1.85-3.33,4.34-3.33,7.47
			c0,1.59,0.28,2.92,0.84,4c0.56,1.08,1.44,1.98,2.63,2.7c1.19,0.72,2.71,1.36,4.56,1.89c1.85,0.54,4.03,1.06,6.56,1.58
			c2.71,0.56,5.14,1.18,7.29,1.86c2.15,0.68,3.98,1.53,5.5,2.56c1.52,1.03,2.69,2.29,3.51,3.79c0.82,1.5,1.23,3.34,1.23,5.54
			c0,2.2-0.43,4.11-1.3,5.75c-0.86,1.64-2.08,3-3.65,4.1c-1.57,1.1-3.44,1.93-5.61,2.49c-2.17,0.56-4.59,0.84-7.26,0.84
			c-7.76,0-14.33-2.48-19.7-7.43l1.89-2.88c2.1,2.2,4.67,3.94,7.71,5.22c3.04,1.29,6.45,1.93,10.24,1.93c4.35,0,7.75-0.79,10.2-2.38
			c2.45-1.59,3.68-4,3.68-7.22c0-1.64-0.31-3.03-0.95-4.17c-0.63-1.15-1.6-2.14-2.91-2.98c-1.31-0.84-2.93-1.57-4.87-2.17
			c-1.94-0.61-4.22-1.19-6.84-1.75c-2.66-0.56-5.01-1.16-7.05-1.79c-2.03-0.63-3.75-1.43-5.15-2.38c-1.4-0.96-2.45-2.11-3.15-3.47
			c-0.7-1.36-1.05-3.06-1.05-5.12c0-2.24,0.43-4.23,1.3-5.96c0.86-1.73,2.07-3.19,3.61-4.38c1.54-1.19,3.39-2.09,5.54-2.7
			c2.15-0.61,4.53-0.91,7.15-0.91c3.23,0,6.1,0.48,8.63,1.44c2.52,0.96,4.81,2.42,6.87,4.38L387.78,214.78z"/>
		<path d="M450.54,209.73h-18.23v46.56h-3.57v-46.56H410.5v-3.23h40.04V209.73z"/>
		<path d="M506.56,253.06v3.23h-33.17v-49.78h32.53v3.23h-28.96v19.56h25.31v3.09h-25.31v20.68H506.56z"/>
		<path d="M531.31,256.29v-49.78h20.75c2.1,0,4.04,0.44,5.82,1.33c1.78,0.89,3.3,2.07,4.56,3.54c1.26,1.47,2.26,3.13,2.98,4.98
			c0.72,1.85,1.09,3.71,1.09,5.57c0,1.82-0.28,3.59-0.84,5.29c-0.56,1.71-1.36,3.24-2.38,4.59c-1.03,1.36-2.27,2.48-3.72,3.37
			c-1.45,0.89-3.04,1.47-4.77,1.75l12.41,19.35h-4.14l-12.06-18.79h-16.13v18.79H531.31z M534.89,234.2h17.46
			c1.59,0,3.04-0.35,4.35-1.05c1.31-0.7,2.43-1.62,3.37-2.77c0.93-1.15,1.65-2.45,2.14-3.93c0.49-1.47,0.74-2.98,0.74-4.52
			c0-1.59-0.29-3.12-0.88-4.59c-0.59-1.47-1.38-2.77-2.38-3.89s-2.17-2.02-3.51-2.7c-1.33-0.68-2.77-1.02-4.31-1.02h-16.97V234.2z"
			/>
		<path d="M52.41,320.91c-3.51,0-6.7-0.71-9.57-2.14c-2.87-1.43-5.34-3.32-7.4-5.68c-2.06-2.36-3.65-5.06-4.77-8.1
			c-1.12-3.04-1.68-6.15-1.68-9.33c0-3.32,0.6-6.5,1.79-9.54c1.19-3.04,2.84-5.73,4.94-8.06c2.1-2.34,4.59-4.2,7.47-5.57
			c2.88-1.38,6-2.07,9.36-2.07c3.51,0,6.68,0.74,9.54,2.21c2.85,1.47,5.31,3.4,7.36,5.78c2.06,2.38,3.65,5.08,4.77,8.1
			c1.12,3.02,1.68,6.09,1.68,9.22c0,3.32-0.6,6.5-1.79,9.54c-1.19,3.04-2.83,5.71-4.91,8.03c-2.08,2.31-4.56,4.16-7.43,5.54
			C58.9,320.22,55.78,320.91,52.41,320.91z M35.37,295.67c0,2.52,0.41,4.97,1.23,7.33c0.82,2.36,1.97,4.45,3.47,6.28
			c1.49,1.82,3.3,3.27,5.4,4.35c2.1,1.08,4.44,1.61,7.01,1.61c2.66,0,5.05-0.57,7.15-1.72c2.1-1.14,3.89-2.64,5.36-4.49
			c1.47-1.85,2.59-3.94,3.37-6.28c0.77-2.34,1.16-4.7,1.16-7.08c0-2.52-0.41-4.97-1.23-7.33c-0.82-2.36-1.99-4.44-3.51-6.24
			c-1.52-1.8-3.32-3.24-5.4-4.31c-2.08-1.07-4.38-1.61-6.91-1.61c-2.66,0-5.05,0.56-7.15,1.68c-2.1,1.12-3.89,2.59-5.36,4.42
			c-1.47,1.82-2.61,3.9-3.4,6.24C35.77,290.86,35.37,293.24,35.37,295.67z"/>
		<path d="M84.74,320.56v-49.78h21.32c2.2,0,4.22,0.46,6.07,1.37c1.85,0.91,3.44,2.13,4.77,3.65c1.33,1.52,2.37,3.23,3.12,5.12
			c0.75,1.89,1.12,3.82,1.12,5.78c0,1.73-0.25,3.4-0.74,5.01c-0.49,1.61-1.19,3.07-2.1,4.38c-0.91,1.31-2.01,2.43-3.3,3.37
			c-1.29,0.94-2.72,1.61-4.31,2.03l12.06,19.07h-7.15l-11.36-17.88H91.05v17.88H84.74z M91.05,297.07h15.08
			c1.31,0,2.49-0.28,3.54-0.84c1.05-0.56,1.95-1.32,2.7-2.28c0.75-0.96,1.33-2.07,1.75-3.33c0.42-1.26,0.63-2.57,0.63-3.93
			c0-1.4-0.25-2.72-0.74-3.96c-0.49-1.24-1.15-2.34-1.96-3.3c-0.82-0.96-1.78-1.71-2.87-2.24c-1.1-0.54-2.26-0.81-3.47-0.81H91.05
			V297.07z"/>
		<path d="M166.07,276.39h-17.18v44.17h-6.31v-44.17H125.4v-5.61h40.67V276.39z"/>
		<path d="M213.33,270.78v49.78h-6.31v-22.65H179.6v22.65h-6.31v-49.78h6.31v21.53h27.42v-21.53H213.33z"/>
		<path d="M245.59,320.91c-3.51,0-6.7-0.71-9.57-2.14c-2.87-1.43-5.34-3.32-7.4-5.68c-2.06-2.36-3.65-5.06-4.77-8.1
			c-1.12-3.04-1.68-6.15-1.68-9.33c0-3.32,0.6-6.5,1.79-9.54c1.19-3.04,2.84-5.73,4.94-8.06c2.1-2.34,4.59-4.2,7.47-5.57
			c2.88-1.38,6-2.07,9.36-2.07c3.51,0,6.68,0.74,9.54,2.21c2.85,1.47,5.31,3.4,7.36,5.78c2.06,2.38,3.65,5.08,4.77,8.1
			c1.12,3.02,1.68,6.09,1.68,9.22c0,3.32-0.6,6.5-1.79,9.54c-1.19,3.04-2.83,5.71-4.91,8.03c-2.08,2.31-4.56,4.16-7.43,5.54
			C252.07,320.22,248.95,320.91,245.59,320.91z M228.55,295.67c0,2.52,0.41,4.97,1.23,7.33c0.82,2.36,1.97,4.45,3.47,6.28
			c1.49,1.82,3.3,3.27,5.4,4.35c2.1,1.08,4.44,1.61,7.01,1.61c2.66,0,5.05-0.57,7.15-1.72c2.1-1.14,3.89-2.64,5.36-4.49
			c1.47-1.85,2.59-3.94,3.37-6.28c0.77-2.34,1.16-4.7,1.16-7.08c0-2.52-0.41-4.97-1.23-7.33c-0.82-2.36-1.99-4.44-3.51-6.24
			c-1.52-1.8-3.32-3.24-5.4-4.31c-2.08-1.07-4.38-1.61-6.91-1.61c-2.66,0-5.05,0.56-7.15,1.68c-2.1,1.12-3.89,2.59-5.36,4.42
			c-1.47,1.82-2.61,3.9-3.4,6.24C228.94,290.86,228.55,293.24,228.55,295.67z"/>
		<path d="M277.91,320.56v-49.78h17.25c3.97,0,7.47,0.65,10.48,1.96c3.02,1.31,5.53,3.09,7.54,5.33c2.01,2.24,3.52,4.87,4.52,7.89
			c1.01,3.02,1.51,6.23,1.51,9.64c0,3.79-0.56,7.21-1.68,10.27c-1.12,3.06-2.73,5.68-4.84,7.85c-2.1,2.17-4.64,3.86-7.61,5.05
			c-2.97,1.19-6.28,1.79-9.92,1.79H277.91z M312.83,295.6c0-2.8-0.39-5.39-1.16-7.75c-0.77-2.36-1.92-4.38-3.44-6.07
			c-1.52-1.68-3.38-3-5.57-3.96c-2.2-0.96-4.7-1.44-7.5-1.44h-10.94v38.56h10.94c2.85,0,5.39-0.49,7.61-1.47
			c2.22-0.98,4.07-2.34,5.54-4.07c1.47-1.73,2.6-3.78,3.37-6.14C312.44,300.92,312.83,298.36,312.83,295.6z"/>
		<path d="M348.59,320.91c-3.51,0-6.7-0.71-9.57-2.14s-5.34-3.32-7.4-5.68c-2.06-2.36-3.65-5.06-4.77-8.1
			c-1.12-3.04-1.68-6.15-1.68-9.33c0-3.32,0.6-6.5,1.79-9.54c1.19-3.04,2.84-5.73,4.94-8.06c2.1-2.34,4.59-4.2,7.47-5.57
			c2.87-1.38,5.99-2.07,9.36-2.07c3.51,0,6.68,0.74,9.54,2.21c2.85,1.47,5.3,3.4,7.36,5.78c2.06,2.38,3.65,5.08,4.77,8.1
			c1.12,3.02,1.68,6.09,1.68,9.22c0,3.32-0.6,6.5-1.79,9.54c-1.19,3.04-2.83,5.71-4.91,8.03c-2.08,2.31-4.56,4.16-7.43,5.54
			C355.07,320.22,351.95,320.91,348.59,320.91z M331.55,295.67c0,2.52,0.41,4.97,1.23,7.33c0.82,2.36,1.98,4.45,3.47,6.28
			c1.5,1.82,3.3,3.27,5.4,4.35c2.1,1.08,4.44,1.61,7.01,1.61c2.66,0,5.05-0.57,7.15-1.72c2.1-1.14,3.89-2.64,5.36-4.49
			c1.47-1.85,2.6-3.94,3.37-6.28c0.77-2.34,1.16-4.7,1.16-7.08c0-2.52-0.41-4.97-1.23-7.33c-0.82-2.36-1.99-4.44-3.5-6.24
			c-1.52-1.8-3.32-3.24-5.4-4.31c-2.08-1.07-4.38-1.61-6.91-1.61c-2.66,0-5.05,0.56-7.15,1.68c-2.1,1.12-3.89,2.59-5.37,4.42
			c-1.47,1.82-2.61,3.9-3.4,6.24C331.94,290.86,331.55,293.24,331.55,295.67z"/>
		<path d="M387.22,282.56v38h-6.31v-49.78h4.91l30.85,38.77v-38.71h6.31v49.71h-5.33L387.22,282.56z"/>
		<path d="M470.87,276.39h-17.18v44.17h-6.31v-44.17H430.2v-5.61h40.67V276.39z"/>
		<path d="M478.09,320.56v-49.71h6.31v49.71H478.09z"/>
		<path d="M493.17,295.32c0-2.99,0.53-5.97,1.58-8.94c1.05-2.97,2.59-5.63,4.63-7.99c2.03-2.36,4.52-4.27,7.47-5.72
			c2.94-1.45,6.29-2.17,10.03-2.17c4.44,0,8.25,1.01,11.43,3.01c3.18,2.01,5.54,4.63,7.08,7.85l-4.98,3.23
			c-0.75-1.59-1.65-2.92-2.7-4c-1.05-1.07-2.2-1.94-3.44-2.59c-1.24-0.65-2.51-1.12-3.82-1.4c-1.31-0.28-2.59-0.42-3.86-0.42
			c-2.76,0-5.2,0.57-7.33,1.72c-2.13,1.15-3.92,2.64-5.36,4.49c-1.45,1.85-2.54,3.93-3.26,6.24c-0.73,2.31-1.09,4.64-1.09,6.98
			c0,2.62,0.43,5.11,1.3,7.47c0.86,2.36,2.07,4.45,3.61,6.28c1.54,1.82,3.37,3.27,5.47,4.35c2.1,1.08,4.39,1.61,6.87,1.61
			c1.31,0,2.65-0.16,4.03-0.49c1.38-0.33,2.7-0.85,3.96-1.58c1.26-0.72,2.44-1.64,3.54-2.73c1.1-1.1,2-2.42,2.7-3.96l5.26,2.88
			c-0.8,1.87-1.91,3.52-3.33,4.94c-1.43,1.43-3.04,2.63-4.84,3.61c-1.8,0.98-3.7,1.73-5.71,2.24c-2.01,0.51-3.98,0.77-5.89,0.77
			c-3.41,0-6.54-0.75-9.4-2.24c-2.85-1.5-5.32-3.45-7.4-5.86c-2.08-2.41-3.69-5.14-4.84-8.2
			C493.74,301.62,493.17,298.5,493.17,295.32z"/>
		<path d="M573.31,281.23c-0.56-0.65-1.31-1.28-2.24-1.89c-0.93-0.61-1.99-1.16-3.15-1.65c-1.17-0.49-2.44-0.89-3.82-1.19
			c-1.38-0.31-2.82-0.46-4.31-0.46c-3.88,0-6.72,0.73-8.52,2.17c-1.8,1.45-2.7,3.44-2.7,5.96c0,1.36,0.26,2.48,0.77,3.37
			c0.51,0.89,1.32,1.65,2.42,2.28c1.1,0.63,2.46,1.18,4.1,1.65c1.63,0.47,3.57,0.96,5.82,1.47c2.57,0.56,4.9,1.2,6.98,1.93
			c2.08,0.73,3.86,1.63,5.33,2.7c1.47,1.08,2.59,2.38,3.37,3.93c0.77,1.54,1.16,3.44,1.16,5.68c0,2.38-0.47,4.45-1.4,6.21
			c-0.93,1.75-2.21,3.2-3.82,4.35c-1.61,1.15-3.52,1.99-5.72,2.52c-2.2,0.54-4.58,0.81-7.15,0.81c-3.83,0-7.47-0.6-10.9-1.79
			s-6.56-2.93-9.36-5.22l3.01-5.33c0.75,0.79,1.72,1.59,2.91,2.38c1.19,0.8,2.55,1.51,4.07,2.14c1.52,0.63,3.15,1.15,4.91,1.54
			c1.75,0.4,3.59,0.6,5.5,0.6c3.55,0,6.31-0.63,8.27-1.89c1.96-1.26,2.95-3.15,2.95-5.68c0-1.4-0.32-2.58-0.95-3.54
			c-0.63-0.96-1.55-1.79-2.77-2.49c-1.22-0.7-2.72-1.32-4.52-1.86c-1.8-0.54-3.85-1.09-6.14-1.65c-2.52-0.61-4.75-1.26-6.66-1.96
			c-1.92-0.7-3.52-1.54-4.8-2.52c-1.29-0.98-2.26-2.17-2.91-3.58c-0.66-1.4-0.98-3.08-0.98-5.05c0-2.38,0.44-4.49,1.33-6.31
			c0.89-1.82,2.13-3.37,3.72-4.63c1.59-1.26,3.48-2.21,5.68-2.84c2.2-0.63,4.58-0.95,7.15-0.95c3.37,0,6.4,0.51,9.12,1.54
			c2.71,1.03,5.12,2.41,7.22,4.14L573.31,281.23z"/>
	</g>
	<path class="st4" d="M578.86,175.99h-13.07c1.48-1.96,2.33-4.36,2.33-6.85c0-6.26-5.1-11.36-11.36-11.36
		c-1.66,0-3.29,0.38-4.79,1.08c-2.55-4.79-7.53-7.87-13-7.87c-5.48,0-10.47,3.08-13,7.87c-1.49-0.7-3.13-1.08-4.79-1.08
		c-6.27,0-11.36,5.1-11.36,11.36c0,2.49,0.84,4.89,2.33,6.85h-15.18c-0.5,0-0.9,0.4-0.9,0.9c0,0.5,0.4,0.9,0.9,0.9h81.91
		c0.5,0,0.9-0.4,0.9-0.9C579.76,176.4,579.36,175.99,578.86,175.99z"/>
	<g>
		<g>
			<g>
				<path d="M514.14,177.8c-0.22,0-0.43-0.08-0.61-0.23c-2.37-2.15-3.73-5.22-3.73-8.42c0-6.26,5.1-11.36,11.36-11.36
					c1.98,0,3.92,0.51,5.62,1.49c0.43,0.25,0.58,0.8,0.34,1.23c-0.25,0.43-0.8,0.58-1.23,0.34c-1.43-0.82-3.06-1.25-4.72-1.25
					c-5.27,0-9.56,4.28-9.56,9.55c0,2.69,1.14,5.27,3.14,7.08c0.37,0.34,0.4,0.91,0.06,1.28C514.63,177.7,514.39,177.8,514.14,177.8
					z"/>
				<path d="M523.58,177.8c-0.38,0-0.74-0.25-0.86-0.64l-2.41-7.75c-0.15-0.48,0.12-0.98,0.59-1.13c0.48-0.15,0.98,0.12,1.13,0.59
					l2.41,7.75c0.15,0.48-0.12,0.98-0.59,1.13C523.76,177.79,523.67,177.8,523.58,177.8z"/>
			</g>
			<g>
				<path d="M563.78,177.8c-0.25,0-0.49-0.1-0.67-0.3c-0.33-0.37-0.31-0.94,0.06-1.28c1.99-1.81,3.14-4.39,3.14-7.08
					c0-5.27-4.29-9.55-9.56-9.55c-1.66,0-3.29,0.43-4.72,1.24c-0.43,0.25-0.99,0.09-1.23-0.34c-0.25-0.43-0.1-0.99,0.34-1.23
					c1.7-0.97,3.64-1.48,5.61-1.48c6.27,0,11.36,5.09,11.36,11.36c0,3.2-1.36,6.27-3.73,8.42C564.22,177.72,564,177.8,563.78,177.8z
					"/>
				<path d="M554.35,177.8c-0.09,0-0.18-0.01-0.27-0.04c-0.48-0.15-0.74-0.65-0.59-1.13l2.41-7.75c0.15-0.48,0.65-0.74,1.13-0.59
					c0.48,0.15,0.74,0.65,0.59,1.13l-2.41,7.75C555.09,177.55,554.73,177.8,554.35,177.8z"/>
			</g>
			<g>
				<path d="M547.19,177.8c-0.28,0-0.55-0.13-0.73-0.37c-0.3-0.4-0.21-0.97,0.19-1.26c0.46-0.34,0.9-0.71,1.31-1.12
					c2.55-2.46,3.95-5.76,3.95-9.29c0-1.86-0.39-3.65-1.15-5.33c-2.09-4.63-6.73-7.62-11.8-7.62c-5.08,0-9.71,2.99-11.8,7.62
					c-0.76,1.68-1.15,3.47-1.15,5.33c0,3.53,1.4,6.83,3.93,9.29c0.41,0.4,0.85,0.78,1.32,1.13c0.4,0.29,0.49,0.86,0.19,1.26
					c-0.29,0.4-0.86,0.49-1.26,0.19c-0.54-0.4-1.05-0.83-1.52-1.29c-2.89-2.8-4.48-6.56-4.48-10.58c0-2.12,0.44-4.16,1.31-6.07
					c2.38-5.27,7.65-8.68,13.45-8.68c5.78,0,11.06,3.41,13.45,8.68c0.87,1.91,1.31,3.96,1.31,6.07c0,4.03-1.6,7.79-4.49,10.59
					c-0.47,0.46-0.97,0.89-1.5,1.28C547.56,177.74,547.38,177.8,547.19,177.8z"/>
				<g>
					<path d="M538.96,177.6c-0.5,0-0.9-0.4-0.9-0.9v-14.65c0-0.5,0.4-0.9,0.9-0.9c0.5,0,0.9,0.4,0.9,0.9v14.65
						C539.87,177.19,539.46,177.6,538.96,177.6z"/>
					<path d="M538.96,176.6c-0.3,0-0.59-0.15-0.76-0.42l-5.68-8.83c-0.27-0.42-0.15-0.98,0.27-1.25c0.42-0.27,0.98-0.15,1.25,0.27
						l5.68,8.83c0.27,0.42,0.15,0.98-0.27,1.25C539.3,176.55,539.13,176.6,538.96,176.6z"/>
					<path d="M538.96,176.6c-0.17,0-0.34-0.05-0.49-0.14c-0.42-0.27-0.54-0.83-0.27-1.25l5.68-8.83c0.27-0.42,0.83-0.54,1.25-0.27
						c0.42,0.27,0.54,0.83,0.27,1.25l-5.68,8.83C539.55,176.45,539.26,176.6,538.96,176.6z"/>
				</g>
			</g>
		</g>
		<path d="M578.86,177.8h-81.91c-0.5,0-0.9-0.4-0.9-0.9c0-0.5,0.4-0.9,0.9-0.9h81.91c0.5,0,0.9,0.4,0.9,0.9
			C579.76,177.4,579.36,177.8,578.86,177.8z"/>
	</g>
	<g>
		<path d="M497.17,76.45V66.7h-31.16h-0.76h-31.16v9.75h-9.3v4.65h-23.43v-2.56h-17.1v2.56h-36.48v21.46h-11.19l-0.48-0.97
			c-1.73-3.52-10.61-6.52-16.71-6.52c-6.32,0-15.41,3.21-16.89,6.9l-0.24,0.59h-15.2V79.32h-10.58v8.95h-4.54l-0.21-0.67
			c-1.66-5.37-15.17-9.76-24.43-9.76c-9.26,0-22.77,4.39-24.42,9.76l-0.21,0.67h-4.25v-8.95H207.8v66.01h-3.03v-39.5h-37.15V86.07
			H95.27v88.18h3.38v-84.9h65.6v16.47h-9.67l0,55.29h13.06v-52.23h34.39v39.5h5.79v12.73h15.61v-15.79h-12.22v-54h14.37
			c-0.21-0.56-0.32-1.11-0.32-1.65c0-4.42,12.01-9.16,22.08-9.16c10.07,0,22.09,4.73,22.09,9.16c0,0.54-0.11,1.09-0.32,1.65h14.61
			v11.23h-12.48l-0.03,58.56h15.89v-55.5h18.03c-0.31-0.55-0.47-1.12-0.47-1.69c0-3.02,7.5-6.29,14.76-6.29
			c7.26,0,14.76,3.26,14.76,6.29c0,0.57-0.16,1.14-0.47,1.69h32.01v62.08h3.35l0.03-65.13h-17.94V84.38h33.11v17.79h17.1V84.38
			h23.43v76.73h14.67v-3.49l-0.1-0.41l-0.01-76.11h-11.17V79.5h9.3v-9.75h56.33v9.75h9.29v97.02h3.38V76.45H497.17z M164.24,158.06
			h-6.29v-49.18h6.29V158.06z M220.03,148.38v9.68h-8.85v-9.68H220.03z M215.87,87.32h-5.33v-6.07h5.33V87.32z M283.69,158.06h-9.1
			v-52.45h9.1V158.06z M284.39,87.32h-5.33v-6.07h5.33V87.32z M398.15,98.95h-10.68v-17.2h10.68V98.95z M435.97,84.38v73.68h-7.79
			V84.38H435.97z"/>
		<g>
			<g>
				<path d="M150.89,58.25c-6.16,0-11.17-5.01-11.17-11.17c0-6.16,5.01-11.17,11.17-11.17c6.16,0,11.17,5.01,11.17,11.17
					C162.06,53.24,157.05,58.25,150.89,58.25z M150.89,37.33c-5.37,0-9.75,4.37-9.75,9.75c0,5.37,4.37,9.75,9.75,9.75
					c5.37,0,9.75-4.37,9.75-9.75C160.63,41.71,156.26,37.33,150.89,37.33z"/>
				<path d="M150.89,33.96c-0.39,0-0.71-0.32-0.71-0.71v-4.87c0-0.39,0.32-0.71,0.71-0.71c0.39,0,0.71,0.32,0.71,0.71v4.87
					C151.6,33.64,151.28,33.96,150.89,33.96z"/>
				<path d="M145.59,35.02c-0.28,0-0.55-0.17-0.66-0.44l-1.86-4.5c-0.15-0.36,0.02-0.78,0.39-0.93c0.36-0.15,0.78,0.02,0.93,0.39
					l1.86,4.5c0.15,0.36-0.02,0.78-0.39,0.93C145.78,35,145.68,35.02,145.59,35.02z"/>
				<path d="M141.11,38.01c-0.18,0-0.36-0.07-0.5-0.21l-3.44-3.44c-0.28-0.28-0.28-0.73,0-1.01c0.28-0.28,0.73-0.28,1.01,0
					l3.44,3.44c0.28,0.28,0.28,0.73,0,1.01C141.47,37.94,141.29,38.01,141.11,38.01z"/>
				<path d="M138.11,42.5c-0.09,0-0.18-0.02-0.27-0.05l-4.5-1.86c-0.36-0.15-0.54-0.57-0.39-0.93c0.15-0.36,0.57-0.54,0.93-0.39
					l4.5,1.86c0.36,0.15,0.54,0.57,0.39,0.93C138.65,42.34,138.39,42.5,138.11,42.5z"/>
				<path d="M137.06,47.79h-4.87c-0.39,0-0.71-0.32-0.71-0.71c0-0.39,0.32-0.71,0.71-0.71h4.87c0.39,0,0.71,0.32,0.71,0.71
					C137.77,47.47,137.45,47.79,137.06,47.79z"/>
				<path d="M133.61,54.95c-0.28,0-0.55-0.17-0.66-0.44c-0.15-0.36,0.02-0.78,0.39-0.93l4.5-1.86c0.36-0.15,0.78,0.02,0.93,0.39
					c0.15,0.36-0.02,0.78-0.39,0.93l-4.5,1.86C133.79,54.93,133.7,54.95,133.61,54.95z"/>
				<path d="M137.66,61.02c-0.18,0-0.36-0.07-0.5-0.21c-0.28-0.28-0.28-0.73,0-1.01l3.44-3.44c0.28-0.28,0.73-0.28,1.01,0
					c0.28,0.28,0.28,0.73,0,1.01l-3.44,3.44C138.03,60.95,137.84,61.02,137.66,61.02z"/>
				<path d="M143.73,65.07c-0.09,0-0.18-0.02-0.27-0.05c-0.36-0.15-0.54-0.57-0.39-0.93l1.86-4.5c0.15-0.36,0.57-0.54,0.93-0.39
					c0.36,0.15,0.54,0.57,0.39,0.93l-1.86,4.5C144.28,64.91,144.01,65.07,143.73,65.07z"/>
				<path d="M150.89,66.5c-0.39,0-0.71-0.32-0.71-0.71v-4.87c0-0.39,0.32-0.71,0.71-0.71c0.39,0,0.71,0.32,0.71,0.71v4.87
					C151.6,66.18,151.28,66.5,150.89,66.5z"/>
				<path d="M158.04,65.07c-0.28,0-0.54-0.17-0.66-0.44l-1.86-4.5c-0.15-0.36,0.02-0.78,0.39-0.93c0.37-0.15,0.78,0.02,0.93,0.39
					l1.86,4.5c0.15,0.36-0.02,0.78-0.39,0.93C158.23,65.06,158.13,65.07,158.04,65.07z"/>
				<path d="M164.11,61.02c-0.18,0-0.36-0.07-0.5-0.21l-3.44-3.44c-0.28-0.28-0.28-0.73,0-1.01c0.28-0.28,0.73-0.28,1.01,0
					l3.44,3.44c0.28,0.28,0.28,0.73,0,1.01C164.48,60.95,164.29,61.02,164.11,61.02z"/>
				<path d="M168.16,54.95c-0.09,0-0.18-0.02-0.27-0.05l-4.5-1.86c-0.36-0.15-0.54-0.57-0.39-0.93c0.15-0.36,0.57-0.54,0.93-0.39
					l4.5,1.86c0.36,0.15,0.54,0.57,0.39,0.93C168.71,54.79,168.44,54.95,168.16,54.95z"/>
				<path d="M169.59,47.79h-4.87c-0.39,0-0.71-0.32-0.71-0.71c0-0.39,0.32-0.71,0.71-0.71h4.87c0.39,0,0.71,0.32,0.71,0.71
					C170.3,47.47,169.98,47.79,169.59,47.79z"/>
				<path d="M163.67,42.5c-0.28,0-0.54-0.17-0.66-0.44c-0.15-0.36,0.02-0.78,0.39-0.93l4.5-1.86c0.36-0.15,0.78,0.02,0.93,0.39
					c0.15,0.36-0.02,0.78-0.39,0.93l-4.5,1.86C163.85,42.48,163.76,42.5,163.67,42.5z"/>
				<path d="M160.67,38.01c-0.18,0-0.36-0.07-0.5-0.21c-0.28-0.28-0.28-0.73,0-1.01l3.44-3.44c0.28-0.28,0.73-0.28,1.01,0
					c0.28,0.28,0.28,0.73,0,1.01l-3.44,3.44C161.03,37.94,160.85,38.01,160.67,38.01z"/>
				<path d="M156.18,35.02c-0.09,0-0.18-0.02-0.27-0.05c-0.36-0.15-0.54-0.57-0.39-0.93l1.86-4.5c0.15-0.36,0.56-0.54,0.93-0.39
					c0.36,0.15,0.54,0.57,0.39,0.93l-1.86,4.5C156.72,34.85,156.46,35.02,156.18,35.02z"/>
			</g>
			<path d="M242.75,59.38h-35.04v-0.71c0-3.28,2.67-5.94,5.94-5.94c0.86,0,1.7,0.19,2.48,0.55c1.74-2.43,4.5-3.86,7.5-3.86
				c2.37,0,4.58,0.88,6.3,2.48c1.36-0.93,2.97-1.43,4.62-1.43c4.52,0,8.2,3.68,8.2,8.2V59.38z M209.19,57.95h32.1
				c-0.36-3.4-3.24-6.06-6.73-6.06c-1.56,0-3.03,0.52-4.24,1.5l-0.52,0.42l-0.45-0.48c-1.5-1.6-3.53-2.48-5.71-2.48
				c-2.73,0-5.22,1.4-6.66,3.74l-0.37,0.61L216,54.81c-0.71-0.43-1.52-0.66-2.35-0.66C211.41,54.15,209.54,55.8,209.19,57.95z"/>
			<path d="M271.6,66.99h-19.94v-0.71c0-2.64,2.15-4.79,4.79-4.79c0.65,0,1.29,0.13,1.88,0.39c1.39-1.87,3.55-2.97,5.9-2.97
				c4.06,0,7.37,3.31,7.37,7.37V66.99z M253.15,65.56h16.97c-0.35-2.94-2.86-5.23-5.9-5.23c-2.07,0-3.97,1.06-5.06,2.84l-0.37,0.6
				l-0.61-0.37c-0.53-0.32-1.13-0.49-1.75-0.49C254.83,62.91,253.48,64.05,253.15,65.56z"/>
			<path d="M398.15,54.65c0-4.06,3.31-7.37,7.37-7.37c2.35,0,4.51,1.1,5.9,2.97c0.59-0.26,1.23-0.39,1.88-0.39
				c2.64,0,4.79,2.15,4.79,4.79v0.71h-19.94V54.65z M413.3,51.29c-0.61,0-1.22,0.17-1.75,0.49l-0.61,0.37l-0.37-0.6
				c-1.09-1.78-2.98-2.84-5.06-2.84c-3.04,0-5.55,2.29-5.9,5.23h16.97C416.26,52.43,414.91,51.29,413.3,51.29z"/>
		</g>
		<path d="M145.32,114.9h-11.22v-18.6h11.22V114.9z M136.58,112.43h6.27V98.78h-6.27V112.43z"/>
		<path d="M123.81,114.9h-11.22v-18.6h11.22V114.9z M115.07,112.43h6.27V98.78h-6.27V112.43z"/>
		<path d="M341.99,135.88h-15.11v-19.04h15.11V135.88z M329.8,132.96h9.27v-13.2h-9.27V132.96z"/>
		<path d="M311.99,135.88h-15.11v-19.04h15.11V135.88z M299.8,132.96h9.27v-13.2h-9.27V132.96z"/>
		<path d="M145.32,143.72h-11.22v-18.6h11.22V143.72z M136.58,141.25h6.27V127.6h-6.27V141.25z"/>
		<path d="M123.81,143.72h-11.22v-18.6h11.22V143.72z M115.07,141.25h6.27V127.6h-6.27V141.25z"/>
		<rect x="172.42" y="116.23" width="19.08" height="2.47"/>
		<rect x="447.3" y="89.59" width="12.89" height="2.47"/>
		<rect x="470.57" y="89.59" width="12.89" height="2.47"/>
		<rect x="447.3" y="108.71" width="12.89" height="2.47"/>
		<rect x="470.57" y="108.71" width="12.89" height="2.47"/>
		<rect x="447.3" y="127.83" width="12.89" height="2.47"/>
		<rect x="470.57" y="127.83" width="12.89" height="2.47"/>
		<rect x="172.42" y="126.32" width="19.08" height="2.47"/>
		<rect x="172.42" y="136.42" width="19.08" height="2.47"/>
	</g>
	<g>
		<path d="M112.97,175.43H35.12c-0.47,0-0.86-0.38-0.86-0.86s0.38-0.86,0.86-0.86h77.85c0.47,0,0.86,0.38,0.86,0.86
			S113.44,175.43,112.97,175.43z"/>
		<path class="st4" d="M104.8,127.7c0.29-0.95,0.44-1.93,0.44-2.93c0-5.95-5.27-10.71-11.3-9.93c-1.2-2.27-3.55-3.71-6.16-3.71
			c-2.7,0-5.1,1.52-6.26,3.93c-3.92,0.23-7.28,2.97-8.3,6.75c-4.09,0.73-7.33,3.67-8.6,7.47c-1.55-0.84-3.33-1.18-5.16-0.84
			c-1.03-2.36-3.41-3.95-6.03-3.95c-2.77,0-5.2,1.72-6.16,4.27c-0.42-0.05-0.81-0.07-1.19-0.07c-6.31,0-11.45,5.14-11.45,11.45
			c0,1.59,0.32,3.13,0.96,4.59c-1.35,1.49-2.08,3.39-2.08,5.42c0,4.52,3.72,8.2,8.26,8.12c1.85,4.37,6.06,7.3,10.79,7.58v8.74
			c0,0.47,0.38,0.86,0.86,0.86s0.86-0.38,0.86-0.86v-8.76c4.95-0.41,9.26-3.72,10.84-8.46c2.92-0.36,5.52-1.87,7.37-4.15
			c1.2,0.65,2.56,1.06,4.02,1.06c0.23,0,0.45-0.01,0.7-0.03c2.41,3.04,5.91,5.01,9.7,5.58v14.78c0,0.47,0.38,0.86,0.86,0.86
			c0.47,0,0.86-0.38,0.86-0.86v-14.62c0.16,0.01,0.32,0.03,0.48,0.03c6.91,0,13.01-4.78,14.7-11.43c4.57-1.48,7.72-5.77,7.72-10.61
			C111.54,133.47,108.87,129.46,104.8,127.7z"/>
		<g>
			<path d="M53.29,165.89c-5.02,0-9.56-3.04-11.5-7.63c-4.54,0.08-8.26-3.6-8.26-8.12c0-2.03,0.73-3.93,2.08-5.42
				c-0.64-1.45-0.96-2.99-0.96-4.59c0-6.31,5.14-11.45,11.45-11.45c0.38,0,0.77,0.02,1.19,0.07c0.95-2.55,3.38-4.27,6.16-4.27
				c2.62,0,5,1.59,6.03,3.95c2.23-0.41,4.42,0.14,6.18,1.46c0.38,0.29,0.45,0.82,0.17,1.2c-0.29,0.38-0.82,0.45-1.2,0.17
				c-1.53-1.16-3.48-1.56-5.45-1l-0.82,0.23l-0.24-0.82c-0.6-2.05-2.52-3.48-4.66-3.48c-2.24,0-4.18,1.53-4.72,3.71l-0.19,0.77
				l-0.79-0.13c-0.63-0.11-1.15-0.15-1.65-0.15c-5.37,0-9.73,4.37-9.73,9.73c0,1.53,0.35,3,1.04,4.37l0.29,0.57l-0.46,0.44
				c-1.28,1.22-1.98,2.87-1.98,4.63c0,3.53,2.87,6.4,6.41,6.4c0.21,0,0.42-0.01,0.63-0.03l0.66-0.06l0.23,0.63
				c1.54,4.25,5.61,7.1,10.12,7.1c4.8,0,9.07-3.23,10.37-7.86l0.16-0.58l0.6-0.04c2.89-0.2,5.51-1.68,7.18-4.06
				c0.27-0.39,0.81-0.48,1.2-0.21c0.39,0.27,0.48,0.81,0.21,1.2c-1.85,2.64-4.7,4.34-7.87,4.73
				C63.45,162.41,58.66,165.89,53.29,165.89z"/>
			<path d="M53.44,175.43c-0.47,0-0.86-0.38-0.86-0.86V138.6c0-0.47,0.38-0.86,0.86-0.86c0.47,0,0.86,0.38,0.86,0.86v35.98
				C54.3,175.05,53.91,175.43,53.44,175.43z"/>
			<path d="M53.44,151c-4.89,0-8.87-3.98-8.87-8.87c0-0.47,0.38-0.86,0.86-0.86c0.47,0,0.86,0.38,0.86,0.86
				c0,3.95,3.21,7.16,7.15,7.16c0.47,0,0.86,0.38,0.86,0.86C54.3,150.61,53.91,151,53.44,151z"/>
			<path d="M53.44,156.87c-0.47,0-0.86-0.38-0.86-0.86c0-0.47,0.38-0.86,0.86-0.86c3.95,0,7.16-3.21,7.16-7.15
				c0-0.47,0.38-0.86,0.86-0.86c0.47,0,0.86,0.38,0.86,0.86C62.31,152.89,58.33,156.87,53.44,156.87z"/>
		</g>
		<g>
			<path d="M89.12,159.98c-4.62,0-9.03-2.14-11.89-5.76c-0.24,0.02-0.47,0.03-0.7,0.03c-4.68,0-8.49-3.81-8.49-8.49
				c0-1.3,0.3-2.58,0.88-3.75c-3.03-2.07-4.89-5.53-4.89-9.22c0-5.42,3.91-10.04,9.19-10.98c1.02-3.78,4.38-6.52,8.3-6.75
				c1.16-2.4,3.56-3.93,6.26-3.93c2.61,0,4.96,1.44,6.16,3.71c6.03-0.78,11.3,3.98,11.3,9.93c0,1-0.15,1.98-0.44,2.93
				c4.06,1.75,6.74,5.76,6.74,10.24c0,4.84-3.15,9.13-7.72,10.61C102.13,155.2,96.03,159.98,89.12,159.98z M77.99,152.39l0.31,0.41
				c2.53,3.42,6.57,5.46,10.82,5.46c6.28,0,11.81-4.45,13.14-10.57l0.11-0.51l0.5-0.14c4.09-1.12,6.95-4.86,6.95-9.1
				c0-4.03-2.57-7.62-6.38-8.93l-0.86-0.29l0.34-0.84c0.4-0.99,0.61-2.04,0.61-3.1c0-4.58-3.72-8.3-8.3-8.3
				c-0.53,0-1.08,0.05-1.62,0.16l-0.69,0.14l-0.27-0.65c-0.81-1.99-2.72-3.27-4.86-3.27c-2.18,0-4.1,1.32-4.89,3.36l-0.21,0.55
				h-0.59h0c-3.57,0-6.63,2.51-7.32,5.98l-0.12,0.61l-0.62,0.08c-4.72,0.58-8.28,4.61-8.28,9.36c0,3.36,1.82,6.5,4.75,8.18
				l0.77,0.45l-0.47,0.76c-0.68,1.08-1.04,2.32-1.04,3.59c0,3.73,3.04,6.77,6.77,6.77c0.29,0,0.59-0.02,0.96-0.08L77.99,152.39z"/>
			<path d="M87.78,175.43c-0.47,0-0.86-0.38-0.86-0.86V120.2c0-0.47,0.38-0.86,0.86-0.86c0.47,0,0.86,0.38,0.86,0.86v54.38
				C88.64,175.05,88.26,175.43,87.78,175.43z"/>
			<path d="M87.78,131.93c-4.26,0-7.73-3.47-7.73-7.73c0-0.47,0.38-0.86,0.86-0.86s0.86,0.38,0.86,0.86c0,3.31,2.7,6.01,6.01,6.01
				c0.47,0,0.86,0.38,0.86,0.86C88.64,131.55,88.26,131.93,87.78,131.93z"/>
			<path d="M87.78,137.65c-0.47,0-0.86-0.38-0.86-0.86s0.38-0.86,0.86-0.86c3.31,0,6.01-2.7,6.01-6.01c0-0.47,0.38-0.86,0.86-0.86
				c0.47,0,0.86,0.38,0.86,0.86C95.51,134.19,92.05,137.65,87.78,137.65z"/>
			<path d="M87.78,145.67c-8.05,0-14.6-6.55-14.6-14.6c0-0.47,0.38-0.86,0.86-0.86s0.86,0.38,0.86,0.86
				c0,7.1,5.78,12.88,12.88,12.88c0.47,0,0.86,0.38,0.86,0.86C88.64,145.28,88.26,145.67,87.78,145.67z"/>
			<path d="M87.78,151.39c-0.47,0-0.86-0.38-0.86-0.86c0-0.47,0.38-0.86,0.86-0.86c7.1,0,12.88-5.78,12.88-12.88
				c0-0.47,0.38-0.86,0.86-0.86c0.47,0,0.86,0.38,0.86,0.86C102.38,144.84,95.83,151.39,87.78,151.39z"/>
		</g>
	</g>
</g>
</svg>
