<?xml version="1.0" encoding="utf-8"?>
<!-- Generator: Adobe Illustrator 22.1.0, SVG Export Plug-In . SVG Version: 6.00 Build 0) -->
<svg version="1.1" xmlns="http://www.w3.org/2000/svg" xmlns:xlink="http://www.w3.org/1999/xlink" x="0px" y="0px" viewBox="0 0 310 144.8" xml:space="preserve">
	<style type="text/css">
		.logo-0 {
			fill: #D19313;
			stroke: #D19313;
			stroke-width: 0.81;
			stroke-linejoin: round;
		}
		.logo-1 {
			fill: #D19313;
			stroke: #D19313;
			stroke-width: 0.54;
			stroke-linejoin: round;
		}
		.logo-text {
			fill: #231F20;
		}
	</style>
	<title>abbott-logo</title>
	<g class='logo-wave'>
		<path class="logo-0" d="M68.9,88.1v14.5h8.7v-3c0-21-4-64.2,49.7-96.6C91.9,20.1,68.5,42.3,68.9,88.1z"/>
		<path class="logo-0" d="M79.4,88.1v14.5h8.1c0.2,0,0.4,0,0.5,0v-3.1c0-21-2.6-65,53.9-98.8C105.2,17.1,79,42.3,79.4,88.1z"/>
		<path class="logo-0" d="M89.9,88.1v14.5c2.9,0,5.8,0,8.6,0c0,0,0,0,0,0v-3.1c0-21-4.2-64,55.9-99.1C117.7,17.9,89.5,42.2,89.9,88.1z"/>
		<path class="logo-0" d="M100.4,88.1v14.5c2.9,0,5.8,0,8.7-0.1v-2.9c0-21-1.7-67.1,56.1-97.7C128.1,16,100,42.2,100.4,88.1z"/>
		<path class="logo-1" d="M110.7,102.6c1.9-17.1,3-62.7,41.4-61c39,1.7,33.4,60.7,33.4,60.7s1.9-51.8-36.1-51.8
		c-32.6,0-29.1,52.1-29.1,52.1L110.7,102.6z"/>
		<path class="logo-1" d="M187.6,6.2C166.4-1.4,139.2,18,125.7,39c-8.4,13.1-12.1,26.9-13.9,38.2c-1.4,8.5-1.4,20.2-1.4,24.1v1.3
		c0.1,0,0.1,0,0.2,0.1h6c0-24.2,14.6-105.7,63.8-89.7c50.5,16.4,46.9,89.5,46.9,89.5S234.4,22.6,187.6,6.2z"/>
		<path class="logo-1" d="M216.5,102.4c0,0-0.4-69.5-44.9-81.3c-30.1-7.9-38.6,11.7-38.6,11.7c2.5-7.2,25.4-33.3,53.3-14.5
		C221.6,42.1,216.5,102.4,216.5,102.4z"/>
		<path class="logo-1" d="M206,102.4c0,0,4.8-65.4-37.1-79.9c-18.7-6.5-30,2.6-33.5,6.6c-2.8,3.4-5.4,7-7.8,10.7c0,0,16.3-13.9,33.3-10
		C206.6,40.4,206,102.4,206,102.4z"/>
		<path class="logo-1" d="M196,102.4c0,0,4.1-62.6-38.6-71.3c-15.3-3.1-29.6,9.2-29.6,9.2l-4.2,12.8c0,0,12.5-16,31.1-13.1
		C197,46.5,196,102.4,196,102.4z"/>
	</g>
	<g>
		<path
			class="logo-text"
			d="M7.2,142c-3.4,0-5.7-2.1-5.7-5.2s2.5-5.4,5.9-5.4s5.7,2.2,5.7,5.2C13.1,140.1,10.4,142,7.2,142L7.2,142z
		 M7.3,141c2.3,0.1,4.4-1.6,4.5-4c0.1-2.3-1.6-4.4-4-4.5s-4.4,1.6-4.5,4c0,0.1,0,0.2,0,0.3c-0.1,2.2,1.6,4.1,3.8,4.2
		C7.2,141,7.2,141,7.3,141z"/>
		<path class="logo-text" d="M15.2,136.7c0-0.9,0-1.6-0.1-2.3h1.4l0.1,1.4h0.1c0.4-1,1.4-1.6,2.5-1.6c0.1,0,0.3,0,0.4,0v1.3
		c-0.2,0-0.4,0-0.6,0c-1.1,0-2,0.7-2.2,1.7c0,0.2,0,0.4,0,0.6v4h-1.7L15.2,136.7z"/>
		<path class="logo-text" d="M23.8,132.6v1.8h2.4v1h-2.4v4c0,0.9,0.3,1.4,1.2,1.4c0.3,0,0.6,0,0.9-0.1l0.1,1c-0.5,0.1-1,0.2-1.5,0.2
		c-0.6,0-1.3-0.2-1.8-0.6c-0.5-0.5-0.7-1.2-0.6-1.9v-4h-1.4v-1h1.4v-1.3L23.8,132.6z"/>
		<path
			class="logo-text"
			d="M28,130.9h1.7v4.6l0,0c0.3-0.4,0.7-0.7,1.2-0.9c0.5-0.3,1.1-0.4,1.7-0.4c1.7-0.1,3.1,1.2,3.2,2.8
		c0,0.1,0,0.2,0,0.4v4.4H34v-4.3c0.1-1.1-0.6-2-1.7-2.2c-0.2,0-0.3,0-0.5,0c-0.9,0-1.8,0.5-2.2,1.3c-0.1,0.2-0.1,0.4-0.1,0.6v4.5H28
		V130.9z"/>
		<path
			class="logo-text"
			d="M42.1,142c-2.4,0-4.4-1.5-4.4-3.8s2-3.9,4.5-3.9s4.4,1.5,4.4,3.8C46.6,140.8,44.3,142.1,42.1,142L42.1,142z
		 M42.1,141c1.5,0,2.8-1.2,2.8-2.7c0-0.1,0-0.2,0-0.3c-0.1-1.5-1.4-2.7-2.9-2.6c-1.5,0.1-2.7,1.4-2.6,2.9c0.1,1.4,1.3,2.6,2.7,2.6
		L42.1,141z"/>
		<path
			class="logo-text"
			d="M56.6,130.9v9c0,0.7,0,1.4,0.1,1.9h-1.5l-0.1-1.3l0,0c-0.7,1-1.9,1.6-3.1,1.5c-2.1,0.1-3.8-1.5-3.9-3.5
		c0-0.1,0-0.2,0-0.3c-0.1-2.1,1.6-3.9,3.8-4c0.1,0,0.2,0,0.3,0c1-0.1,2.1,0.3,2.7,1.1l0,0V131L56.6,130.9z M54.9,137.4
		c0-0.2,0-0.4-0.1-0.6c-0.4-1-1.3-1.6-2.4-1.5c-1.5,0-2.7,1.1-2.7,2.6c0,0.1,0,0.2,0,0.3c-0.1,1.4,0.9,2.6,2.3,2.8
		c0.1,0,0.2,0,0.3,0c1.1,0,2-0.6,2.4-1.6c0.1-0.2,0.1-0.4,0.1-0.6L54.9,137.4z"/>
		<path
			class="logo-text"
			d="M63,142c-2.4,0-4.4-1.5-4.4-3.8s2-3.9,4.5-3.9c2.5,0,4.4,1.5,4.4,3.8C67.5,140.8,65.2,142.1,63,142L63,142z
		 M63.1,141c1.5,0,2.8-1.2,2.8-2.7c0-0.1,0-0.2,0-0.3c-0.1-1.5-1.4-2.7-2.9-2.6c-1.5,0.1-2.7,1.4-2.6,2.9c0.1,1.5,1.3,2.6,2.7,2.6
		L63.1,141z"/>
		<path
			class="logo-text"
			d="M69.6,136.4c0-0.8,0-1.4-0.1-2H71l0.1,1.2l0,0c0.7-0.9,1.8-1.4,3-1.4c1.7-0.1,3.1,1.1,3.2,2.8
		c0,0.1,0,0.3,0,0.4v4.4h-1.6v-4.3c0.1-1.1-0.7-2.1-1.8-2.2c-0.1,0-0.2,0-0.3,0c-0.9,0-1.8,0.5-2.2,1.4c-0.1,0.2-0.1,0.4-0.1,0.6
		v4.5h-1.6V136.4z"/>
		<path class="logo-text" d="M81.9,132.6v1.8h2.4v1h-2.4v4c0,0.9,0.3,1.4,1.2,1.4c0.3,0,0.7,0,1-0.1l0.1,1c-0.5,0.2-1,0.3-1.5,0.3
		c-0.6,0-1.3-0.2-1.8-0.6c-0.5-0.5-0.7-1.2-0.6-1.9v-4h-1.4v-1h1.4v-1.4L81.9,132.6z"/>
		<path class="logo-text" d="M87,133.1c-0.5,0-1-0.4-1-0.9c0-0.5,0.4-0.9,1.1-0.9c0.5,0,1,0.3,1,0.9C88,132.7,87.5,133.1,87,133.1z
		 M86.2,141.8v-7.4h1.6v7.4H86.2z"/>
		<path class="logo-text" d="M97,141.6c-0.8,0.3-1.7,0.4-2.6,0.4c-2.7,0-4.5-1.5-4.5-3.8c0-2.3,1.9-3.9,4.9-3.9c0.8,0,1.6,0.1,2.3,0.4
		l-0.4,1c-0.6-0.2-1.3-0.4-1.9-0.3c-2.1,0-3.2,1.3-3.2,2.8c0,1.7,1.3,2.8,3.1,2.8c0.7,0,1.4-0.1,2-0.4L97,141.6z"/>
		<path
			class="logo-text"
			d="M98.7,140.5c0.7,0.3,1.4,0.5,2.2,0.5c1.2,0,1.7-0.5,1.7-1.1s-0.5-1-1.7-1.4c-1.7-0.5-2.4-1.2-2.4-2.1
		c0-1.2,1.2-2.2,3.1-2.2c0.8,0,1.5,0.1,2.2,0.5l-0.4,1c-0.6-0.3-1.2-0.4-1.9-0.4c-1,0-1.5,0.5-1.5,1s0.5,0.9,1.7,1.3
		c1.6,0.5,2.4,1.1,2.4,2.2c0,1.3-1.3,2.2-3.4,2.2c-0.9,0-1.7-0.2-2.5-0.5L98.7,140.5z"/>
		<path class="logo-text" d="M111.6,138.2c-0.9-0.2-1.4-1.1-1.2-2c0.2-0.9,1.1-1.4,2-1.2c0.7,0.2,1.3,0.8,1.3,1.6
		C113.5,137.5,112.7,138.3,111.6,138.2C111.7,138.2,111.7,138.2,111.6,138.2z"/>
		<path
			class="logo-text"
			d="M119.7,131.6c1.2-0.1,2.3-0.2,3.5-0.2c1.8-0.1,3.6,0.3,5.1,1.3c1.2,0.9,1.9,2.3,1.8,3.7c0,1.5-0.6,3-1.8,4
		c-1.7,1.1-3.6,1.6-5.6,1.5c-1,0-2,0-3-0.1L119.7,131.6z M121.4,140.8c0.5,0.1,1.1,0.1,1.6,0.1c3.5,0,5.4-1.6,5.4-4.4
		c0-2.5-1.7-4-5.1-4c-0.6,0-1.3,0-1.9,0.1L121.4,140.8z"/>
		<path
			class="logo-text"
			d="M133.2,138.4c0,1.8,1.4,2.6,3.1,2.6c0.9,0,1.7-0.1,2.5-0.4l0.3,1c-1,0.3-2,0.5-3,0.5c-2.8,0-4.5-1.5-4.5-3.7
		c0-2.2,1.8-4,4-4c0.1,0,0.2,0,0.3,0c1.9-0.2,3.5,1.2,3.7,3c0,0.2,0,0.3,0,0.5c0,0.2,0,0.4-0.1,0.6L133.2,138.4z M138,137.4
		c0.1-1.1-0.8-2.1-1.9-2.2c-0.1,0-0.2,0-0.3,0c-1.3,0-2.4,0.9-2.5,2.2H138z"/>
		<path
			class="logo-text"
			d="M141.7,136.4c0-0.7,0-1.3-0.1-2h1.5l0.1,1.2l0,0c0.7-0.9,1.8-1.4,3-1.4c1.7-0.1,3.1,1.1,3.2,2.8
		c0,0.1,0,0.3,0,0.4v4.4h-1.7v-4.3c0.1-1.1-0.7-2.1-1.8-2.2c-0.1,0-0.2,0-0.3,0c-0.9,0-1.8,0.5-2.2,1.4c-0.1,0.2-0.1,0.4-0.1,0.6
		v4.5h-1.6V136.4z"/>
		<path class="logo-text" d="M154,132.6v1.8h2.4v1H154v4c0,0.9,0.3,1.4,1.2,1.4c0.3,0,0.7,0,1-0.1l0.1,1c-0.5,0.1-1,0.2-1.5,0.2
		c-0.6,0-1.3-0.2-1.8-0.6c-0.5-0.5-0.7-1.2-0.6-1.9v-4H151v-1h1.4v-1.3L154,132.6z"/>
		<path
			class="logo-text"
			d="M161.8,142c-2.4,0-4.4-1.5-4.4-3.8s2-3.9,4.5-3.9c2.5,0,4.4,1.5,4.4,3.8C166.3,140.8,164,142.1,161.8,142
		L161.8,142z M161.8,141c1.5,0,2.7-1.2,2.8-2.7c0-0.1,0-0.1,0-0.2c-0.1-1.5-1.4-2.7-2.9-2.6c-1.5,0.1-2.7,1.4-2.6,2.9
		C159.2,139.9,160.4,141,161.8,141L161.8,141z"/>
		<path class="logo-text" d="M168.6,141.8v-6.4h-1.3v-1h1.3v-0.4c-0.1-1,0.3-1.9,1.1-2.6c0.6-0.5,1.4-0.7,2.2-0.7c0.5,0,0.9,0.1,1.4,0.2
		l-0.2,1c-0.3-0.1-0.7-0.2-1.1-0.2c-1.4,0-1.8,1-1.8,2.1v0.4h2.2v1h-2.2v6.4L168.6,141.8z"/>
		<path
			class="logo-text"
			d="M180.3,140c0,0.6,0,1.2,0.1,1.8H179l-0.1-0.9h0c-0.7,0.7-1.7,1.2-2.8,1.1c-1.8,0-2.8-1.1-2.8-2.1
		c0-1.8,1.9-2.8,5.5-2.8V137c0-0.6-0.2-1.7-2.1-1.7c-0.8,0-1.7,0.2-2.4,0.6l-0.4-0.9c0.9-0.4,2-0.7,3-0.6c2.8,0,3.5,1.5,3.5,3
		L180.3,140z M178.7,138.1c-1.8,0-3.8,0.2-3.8,1.7c0,0.9,0.7,1.3,1.5,1.3c0.9,0.1,1.8-0.4,2.2-1.2c0-0.1,0.1-0.3,0.1-0.4V138.1z"/>
		<path class="logo-text" d="M189.4,141.6c-0.8,0.3-1.7,0.4-2.6,0.4c-2.7,0-4.5-1.5-4.5-3.8c0-2.3,1.9-3.9,4.9-3.9c0.8,0,1.6,0.1,2.3,0.4
		l-0.4,1c-0.6-0.2-1.3-0.4-1.9-0.3c-2.1,0-3.2,1.3-3.2,2.8c0,1.7,1.3,2.8,3.1,2.8c0.7,0,1.4-0.1,2-0.4L189.4,141.6z"/>
		<path class="logo-text" d="M192.2,133.1c0.5,0,1-0.3,1.1-0.9c0-0.5-0.5-0.9-1-0.9c0,0,0,0,0,0c-0.6,0-1.1,0.4-1.1,0.9
		C191.2,132.7,191.6,133.1,192.2,133.1L192.2,133.1z M193,141.8v-7.4h-1.6v7.4H193z"/>
		<path
			class="logo-text"
			d="M202.2,140c0,0.6,0,1.2,0.1,1.8h-1.5l-0.1-0.9h-0.1c-0.7,0.7-1.7,1.2-2.8,1.1c-1.8,0-2.8-1.1-2.8-2.1
		c0-1.8,1.9-2.8,5.5-2.8V137c0-0.6-0.2-1.7-2.1-1.7c-0.8,0-1.6,0.2-2.4,0.6l-0.4-0.9c0.9-0.4,2-0.7,3-0.6c2.8,0,3.5,1.5,3.5,3V140z
		 M200.5,138.1c-1.8,0-3.8,0.2-3.8,1.7c0,0.9,0.7,1.3,1.5,1.3c0.9,0.1,1.8-0.4,2.2-1.2c0.1-0.1,0.1-0.3,0.1-0.4V138.1z"/>
		<path class="logo-text" d="M204.8,130.9h1.6v10.9h-1.6V130.9z"/>
		<path
			class="logo-text"
			d="M218.2,142c-3.4,0-5.7-2.1-5.7-5.2s2.5-5.4,5.9-5.4s5.7,2.2,5.7,5.2C224.1,140.1,221.4,142,218.2,142
		L218.2,142z M218.3,141c2.3,0.1,4.3-1.7,4.4-4.1c0.1-2.3-1.7-4.3-4.1-4.4c-2.3-0.1-4.3,1.7-4.4,4.1c0,0.1,0,0.2,0,0.2
		c-0.1,2.2,1.6,4.1,3.8,4.2C218.1,141,218.2,141,218.3,141z"/>
		<path class="logo-text" d="M226.1,136.7c0-0.9,0-1.6-0.1-2.3h1.4l0.1,1.4h0.1c0.4-1,1.4-1.6,2.5-1.6c0.1,0,0.3,0,0.4,0v1.3
		c-0.2,0-0.3,0-0.6,0c-1.1,0-2,0.7-2.2,1.7c0,0.2-0.1,0.4-0.1,0.6v4h-1.6L226.1,136.7z"/>
		<path class="logo-text" d="M234.7,132.6v1.8h2.4v1h-2.4v4c0,0.9,0.3,1.4,1.2,1.4c0.3,0,0.7,0,1-0.1l0.1,1c-0.5,0.1-1,0.2-1.5,0.2
		c-0.6,0-1.3-0.2-1.8-0.6c-0.5-0.5-0.7-1.2-0.6-1.9v-4h-1.4v-1h1.4v-1.3L234.7,132.6z"/>
		<path
			class="logo-text"
			d="M238.9,130.9h1.7v4.6l0,0c0.3-0.4,0.7-0.7,1.2-0.9c0.5-0.3,1.1-0.4,1.7-0.4c1.7-0.1,3.1,1.2,3.2,2.8
		c0,0.1,0,0.2,0,0.4v4.4H245v-4.3c0.1-1.1-0.6-2-1.7-2.2c-0.1,0-0.3,0-0.4,0c-0.9,0-1.8,0.5-2.2,1.3c-0.1,0.2-0.1,0.4-0.1,0.6v4.5
		h-1.7L238.9,130.9z"/>
		<path
			class="logo-text"
			d="M253,142c-2.4,0-4.4-1.5-4.4-3.8s2-3.9,4.5-3.9s4.4,1.5,4.4,3.8C257.6,140.8,255.2,142.1,253,142L253,142z
		 M253.1,141c1.5,0,2.8-1.2,2.8-2.7c0-0.1,0-0.2,0-0.3c-0.1-1.5-1.4-2.7-2.9-2.6c-1.5,0.1-2.7,1.4-2.6,2.9c0.1,1.5,1.3,2.6,2.7,2.6
		L253.1,141z"/>
		<path
			class="logo-text"
			d="M259.7,136.8c0-0.9,0-1.7-0.1-2.4h1.5l0.1,1.3l0,0c0.8-1,2-1.5,3.2-1.4c2-0.1,3.8,1.4,3.9,3.5
		c0,0.1,0,0.2,0,0.3c0.1,2.1-1.6,3.9-3.7,4c-0.1,0-0.3,0-0.4,0c-1.1,0.1-2.1-0.4-2.8-1.2l0,0v4h-1.6V136.8z M261.3,138.8
		c0,0.2,0,0.4,0.1,0.5c0.4,1,1.4,1.6,2.5,1.6c1.4,0.1,2.7-1,2.8-2.5c0-0.1,0-0.3,0-0.4c0-1.5-1.2-2.7-2.7-2.7
		c-1.1,0-2.1,0.6-2.5,1.6c-0.1,0.2-0.1,0.4-0.1,0.5L261.3,138.8z"/>
		<path
			class="logo-text"
			d="M271.3,138.4c0,1.8,1.4,2.6,3.1,2.6c0.9,0,1.7-0.1,2.5-0.4l0.3,1c-1,0.3-2,0.5-3,0.5c-2.8,0-4.5-1.5-4.5-3.7
		c0-2.2,1.8-4,4-4c0.1,0,0.2,0,0.3,0c1.9-0.2,3.5,1.2,3.7,3c0,0.2,0,0.3,0,0.5c0,0.2,0,0.4-0.1,0.6L271.3,138.4z M276.1,137.4
		c0.1-1.1-0.8-2.1-1.9-2.2c-0.1,0-0.2,0-0.3,0c-1.3,0-2.4,0.9-2.5,2.2H276.1z"/>
		<path
			class="logo-text"
			d="M287.6,130.9v9c0,0.7,0,1.4,0.1,1.9h-1.5l-0.1-1.3l0,0c-0.7,1-1.9,1.5-3.1,1.5c-2.1,0.1-3.8-1.5-3.9-3.5
		c0-0.1,0-0.2,0-0.3c-0.1-2.1,1.6-3.9,3.8-4c0.1,0,0.2,0,0.3,0c1-0.1,2.1,0.3,2.7,1.1l0,0V131L287.6,130.9z M286,137.4
		c0-0.2,0-0.4-0.1-0.6c-0.4-1-1.3-1.6-2.4-1.5c-1.5-0.1-2.7,1.1-2.7,2.5c0,0.1,0,0.2,0,0.3c-0.1,1.4,0.9,2.6,2.3,2.8
		c0.1,0,0.2,0,0.3,0c1.1,0.1,2.1-0.6,2.4-1.6c0.1-0.2,0.1-0.4,0.1-0.6V137.4z"/>
		<path class="logo-text" d="M291.1,133.1c-0.5,0-1-0.4-1-0.9c0-0.5,0.4-0.9,1.1-0.9s1,0.4,1,0.9C292.2,132.7,291.7,133.1,291.1,133.1
		L291.1,133.1z M290.3,141.8v-7.4h1.6v7.4H290.3z"/>
		<path class="logo-text" d="M301.2,141.6c-0.8,0.3-1.7,0.5-2.6,0.5c-2.7,0-4.5-1.5-4.5-3.8c0-2.3,1.9-3.9,4.9-3.9c0.8,0,1.6,0.1,2.3,0.4
		l-0.4,1c-0.6-0.2-1.3-0.4-1.9-0.3c-2.1,0-3.2,1.3-3.2,2.8c0,1.7,1.3,2.8,3.1,2.8c0.7,0,1.4-0.1,2-0.4L301.2,141.6z"/>
		<path
			class="logo-text"
			d="M302.9,140.5c0.7,0.3,1.4,0.5,2.2,0.5c1.2,0,1.7-0.5,1.7-1.1s-0.5-1-1.7-1.4c-1.7-0.5-2.4-1.2-2.4-2.1
		c0-1.2,1.2-2.2,3.1-2.2c0.8,0,1.5,0.1,2.2,0.5l-0.4,1c-0.6-0.3-1.2-0.4-1.9-0.4c-1,0-1.5,0.5-1.5,1s0.5,0.9,1.7,1.3
		c1.6,0.5,2.4,1.1,2.4,2.2c0,1.3-1.3,2.2-3.4,2.2c-0.9,0-1.7-0.2-2.5-0.5L302.9,140.5z"/>
	</g>
	<g>
		<path
			class="logo-text"
			d="M1.7,109.6c1.4-0.2,2.8-0.3,4.2-0.3c2.8,0,4.8,0.7,6.1,2c1.5,1.6,2.3,3.7,2.2,5.9c0.1,2.3-0.7,4.6-2.2,6.3
		c-1.4,1.5-3.8,2.3-6.7,2.3c-1.2,0-2.4,0-3.6-0.2L1.7,109.6z M3.7,124.1c0.7,0.1,1.3,0.1,2,0.1c4.2,0,6.5-2.5,6.5-6.9
		c0-3.9-2-6.3-6.1-6.3c-0.8,0-1.5,0.1-2.3,0.2L3.7,124.1z"/>
		<path class="logo-text" d="M18.3,109.4v16.3h-2v-16.3H18.3z"/>
		<path class="logo-text" d="M23.8,120.6l-1.6,5.1h-2l5.2-16.3h2.4l5.2,16.3h-2.1l-1.6-5.1H23.8z M28.8,118.9l-1.5-4.7
		c-0.3-1.1-0.5-2-0.8-3h-0.1c-0.2,0.9-0.4,2-0.7,3l-1.5,4.7L28.8,118.9z"/>
		<path class="logo-text" d="M34.7,125.7v-16.3h2.2l4.8,8.3c1,1.7,1.9,3.5,2.7,5.3h0.1c-0.2-2.2-0.2-4.2-0.2-6.7v-6.8h1.8v16.3h-2l-4.8-8.3
		c-1.1-1.8-2-3.6-2.8-5.4h-0.1c0.1,2.1,0.1,4,0.1,6.7v7H34.7z"/>
		<path class="logo-text" d="M51.5,120.6l-1.6,5.1h-2l5.2-16.3h2.4l5.2,16.3h-2.1l-1.6-5.1L51.5,120.6z M56.5,118.9l-1.5-4.7
		c-0.3-1.1-0.5-2-0.8-3h-0.1c-0.2,0.9-0.4,2-0.7,3l-1.5,4.7L56.5,118.9z"/>
		<path
			class="logo-text"
			d="M69.5,125.7l-3.8-16.3h2.1l1.8,8.3c0.4,2,0.9,4.1,1.1,5.6l0,0c0.2-1.6,0.7-3.6,1.2-5.7l2-8.2h2l1.8,8.3
		c0.4,2,0.8,3.9,1.1,5.6l0,0c0.3-1.8,0.7-3.6,1.2-5.6l2-8.2h2l-4.3,16.3h-2l-1.9-8.5c-0.4-1.8-0.8-3.5-1-5.3l0,0
		c-0.3,1.8-0.7,3.6-1.2,5.3l-2.2,8.5L69.5,125.7z"/>
		<path class="logo-text" d="M91.5,126c-4,0-6.8-3.3-6.8-8.3c0-5.2,3-8.6,7-8.6c4,0,6.8,3.4,6.8,8.3C98.6,123,95.4,126,91.5,126L91.5,126z
		 M91.6,124.3c3.1,0,4.9-3.1,4.9-6.8c0-3.2-1.6-6.6-4.8-6.6s-4.9,3.3-4.9,6.8S88.5,124.3,91.6,124.3L91.6,124.3z"/>
		<path class="logo-text" d="M100.7,109.4h2v14.5h6.4v1.8h-8.5L100.7,109.4z"/>
		<path class="logo-text" d="M110.9,109.4h8.2v1.8h-6.2v5.4h5.7v1.7h-5.7v7.4h-2L110.9,109.4z"/>
		<path class="logo-text" d="M128.3,120.6l-1.6,5.1h-2l5.1-16.3h2.4l5.2,16.3h-2.1l-1.6-5.1H128.3z M133.3,118.9l-1.5-4.7
		c-0.3-1.1-0.5-2-0.8-3H131c-0.2,0.9-0.4,2-0.7,3l-1.5,4.7L133.3,118.9z"/>
		<path
			class="logo-text"
			d="M139.2,109.6c1.2-0.3,2.4-0.4,3.6-0.4c1.5-0.1,3,0.3,4.1,1.2c0.9,0.7,1.3,1.8,1.3,2.9c0,1.6-1,3-2.6,3.6v0.1
		c1.9,0.4,3.2,2.1,3.1,4.1c0,1.2-0.4,2.4-1.3,3.3c-1,1-2.7,1.5-5.2,1.5c-1,0-2-0.1-3-0.2L139.2,109.6z M141.2,116.3h1.8
		c2,0,3.3-1.2,3.3-2.8c0-1.9-1.3-2.7-3.3-2.7c-0.6,0-1.2,0-1.7,0.1V116.3z M141.2,124.1c0.5,0.1,1.1,0.1,1.6,0.1
		c2,0,3.9-0.8,3.9-3.2c0-2.2-1.8-3.1-3.9-3.1h-1.6V124.1z"/>
		<path
			class="logo-text"
			d="M151,109.6c1.2-0.3,2.4-0.4,3.6-0.4c1.5-0.1,3,0.3,4.1,1.2c0.9,0.7,1.3,1.8,1.3,2.9c0,1.6-1,3-2.6,3.6v0.1
		c1.9,0.4,3.2,2.1,3.1,4.1c0,1.2-0.4,2.4-1.3,3.3c-1,1-2.7,1.5-5.2,1.5c-1,0-2-0.1-3-0.2L151,109.6z M153,116.3h1.8
		c2,0,3.3-1.2,3.3-2.8c0-1.9-1.3-2.7-3.3-2.7c-0.6,0-1.2,0-1.7,0.1L153,116.3z M153,124.1c0.5,0.1,1.1,0.1,1.6,0.1
		c2,0,3.9-0.8,3.9-3.2c0-2.2-1.8-3.1-3.9-3.1H153V124.1z"/>
		<path class="logo-text" d="M168.7,126c-4,0-6.8-3.3-6.8-8.3c0-5.2,3-8.6,7-8.6s6.8,3.4,6.8,8.3C175.7,123,172.6,126,168.7,126L168.7,126z
		 M168.8,124.3c3.1,0,4.9-3.1,4.9-6.8c0-3.2-1.6-6.6-4.8-6.6s-4.9,3.3-4.9,6.8S165.7,124.3,168.8,124.3L168.8,124.3z"/>
		<path class="logo-text" d="M180.1,111.2h-4.6v-1.8h11.2v1.8h-4.6v14.5h-2V111.2z"/>
		<path class="logo-text" d="M191.8,111.2h-4.6v-1.8h11.2v1.8h-4.6v14.5h-2L191.8,111.2z"/>
		<path class="logo-text" d="M197.3,128.7c0.6-1.9,1.1-3.8,1.4-5.8l2.2-0.2c-0.5,2-1.3,4-2.2,5.9L197.3,128.7z"/>
		<path
			class="logo-text"
			d="M207.4,109.6c1.4-0.2,2.8-0.3,4.2-0.3c2.8,0,4.8,0.7,6.1,2c1.5,1.6,2.3,3.7,2.2,5.9c0.1,2.3-0.7,4.6-2.2,6.3
		c-1.4,1.5-3.8,2.3-6.7,2.3c-1.2,0-2.4,0-3.6-0.2V109.6z M209.4,124.1c0.7,0.1,1.3,0.1,2,0.1c4.2,0,6.5-2.5,6.5-6.9
		c0-3.9-2-6.3-6.1-6.3c-0.8,0-1.5,0.1-2.3,0.2L209.4,124.1z"/>
		<path
			class="logo-text"
			d="M221.2,109.6c1.4-0.2,2.8-0.3,4.2-0.3c2.8,0,4.8,0.7,6.1,2c1.5,1.6,2.3,3.7,2.2,5.9c0.1,2.3-0.7,4.6-2.2,6.3
		c-1.4,1.5-3.8,2.3-6.7,2.3c-1.2,0-2.4,0-3.6-0.2V109.6z M223.2,124.1c0.7,0.1,1.3,0.1,2,0.1c4.2,0,6.5-2.5,6.5-6.9
		c0-3.9-2-6.3-6.1-6.3c-0.8,0-1.5,0.1-2.3,0.2L223.2,124.1z"/>
		<path
			class="logo-text"
			d="M235.1,123.2c1,0.7,2.2,1.1,3.5,1.1c2,0,3.2-1.1,3.2-2.8c0-1.5-0.8-2.4-2.9-3.2c-2.5-1-4-2.4-4-4.6
		c0-2.5,2-4.4,4.9-4.4c1.2,0,2.3,0.2,3.3,0.8l-0.5,1.7c-0.9-0.5-1.9-0.8-2.9-0.8c-2.1,0-2.9,1.3-2.9,2.4c0,1.5,0.9,2.3,3,3.1
		c2.6,1.1,3.9,2.4,3.9,4.8s-1.7,4.7-5.3,4.7c-1.4,0-2.7-0.4-3.9-1.1L235.1,123.2z"/>
		<path class="logo-text" d="M244.4,128.7c0.6-1.9,1.1-3.8,1.3-5.8l2.2-0.2c-0.5,2-1.3,4-2.2,5.9L244.4,128.7z"/>
		<path
			class="logo-text"
			d="M265,118.6c-0.1-2.3-0.2-5-0.2-7h0c-0.5,1.9-1.1,3.9-1.9,6.2l-2.7,7.9h-1.5l-2.5-7.8c-0.7-2.3-1.3-4.4-1.7-6.3
		l0,0c0,2-0.2,4.7-0.3,7.2l-0.4,7h-1.9l1.1-16.3h2.5l2.6,7.9c0.6,2,1.1,3.8,1.5,5.5l0,0c0.4-1.6,1-3.4,1.6-5.5l2.7-7.9h2.5l0.9,16.3
		h-1.9L265,118.6z"/>
		<path
			class="logo-text"
			d="M269.3,123.2c1,0.7,2.2,1.1,3.5,1.1c2,0,3.2-1.1,3.2-2.8c0-1.5-0.8-2.4-2.9-3.2c-2.5-1-4-2.4-4-4.6
		c0-2.5,2-4.4,4.9-4.4c1.2,0,2.3,0.2,3.3,0.8l-0.5,1.7c-0.9-0.5-1.9-0.8-2.9-0.8c-2.1,0-2.9,1.3-2.9,2.4c0,1.5,0.9,2.3,3,3.1
		c2.6,1.1,3.8,2.4,3.8,4.8s-1.7,4.7-5.3,4.7c-1.4,0-2.7-0.4-3.9-1.1L269.3,123.2z"/>
		<path class="logo-text" d="M278.6,128.7c0.6-1.9,1-3.8,1.3-5.8l2.2-0.2c-0.5,2-1.3,4-2.2,5.9L278.6,128.7z"/>
		<path
			class="logo-text"
			d="M286.4,109.6c1.2-0.2,2.5-0.4,3.8-0.3c1.5-0.1,3.1,0.4,4.2,1.3c0.9,0.9,1.4,2.1,1.4,3.4
		c0.1,1.3-0.4,2.5-1.2,3.5c-1.2,1.2-2.9,1.9-4.6,1.8c-0.5,0-1.1,0-1.6-0.1v6.5h-2L286.4,109.6z M288.4,117.5
		c0.5,0.1,1.1,0.2,1.6,0.2c2.4,0,3.8-1.3,3.8-3.5s-1.4-3.2-3.6-3.2c-0.6,0-1.2,0.1-1.8,0.2V117.5z"/>
		<path class="logo-text" d="M308.2,125.2c-1.3,0.6-2.6,0.8-4,0.8c-4.3,0-7.5-2.9-7.5-8.3c0-5.1,3.2-8.6,7.9-8.6c1.2-0.1,2.5,0.2,3.6,0.7
		l-0.5,1.7c-0.9-0.5-2-0.7-3-0.7c-3.6,0-5.9,2.4-5.9,6.7c0,4,2.1,6.6,5.8,6.6c1.1,0,2.2-0.2,3.2-0.7L308.2,125.2z"/>
	</g>
</svg>
