<svg width="49" height="48" viewBox="0 0 49 48" fill="none" xmlns="http://www.w3.org/2000/svg">
<path d="M0.0107422 2.51826V45.4817C0.0450277 45.5748 0.0742222 45.6697 0.0982035 45.766C0.177505 46.3106 0.430805 46.815 0.820293 47.2038C1.20978 47.5926 1.71457 47.8451 2.25931 47.9234C2.34114 47.9434 2.42152 47.969 2.49985 48H25.6124V29.4173H19.6065C19.4733 29.4173 19.4059 29.4173 19.3718 29.3866C19.3269 29.3581 19.3258 29.2949 19.3258 29.155V22.3947C19.3258 22.1906 19.3878 22.136 19.5883 22.1396H25.6088V21.9282C25.6088 21.3038 25.6059 20.6794 25.6031 20.055C25.5974 18.8062 25.5918 17.5574 25.6088 16.3085C25.6111 14.8102 25.9433 13.3308 26.5818 11.9754C27.425 10.1659 28.9245 8.7446 30.7765 7.99939C31.7583 7.59313 32.797 7.34752 33.8529 7.27009C34.1685 7.24543 34.4858 7.23581 34.8035 7.24142C36.0568 7.26177 37.3101 7.30997 38.5652 7.35825C38.8831 7.37047 39.2011 7.3827 39.5193 7.39448C39.6859 7.39448 39.8525 7.41352 40.0191 7.43256C40.144 7.44684 40.269 7.46112 40.3939 7.46737C40.5579 7.46737 40.6126 7.53661 40.609 7.70061V13.8013C40.609 13.9806 40.56 14.0425 40.391 14.0486C40.3682 14.0514 40.3425 14.0527 40.3138 14.0527C39.9151 14.0527 39.5168 14.0498 39.1187 14.047C38.3235 14.0413 37.5292 14.0357 36.735 14.0527C36.5837 14.0555 36.4326 14.0624 36.2818 14.0734C35.905 14.103 35.5304 14.1582 35.1606 14.2386C34.6948 14.3265 34.2683 14.5584 33.9413 14.9017C33.6144 15.245 33.4035 15.6823 33.3385 16.1519C33.2566 16.5625 33.2127 16.9797 33.2073 17.3983V21.9792C33.2045 22.0327 33.2045 22.0862 33.2073 22.1396H40.0659C40.3539 22.1396 40.3611 22.1396 40.3247 22.4129C40.2751 22.792 40.2252 23.1715 40.1753 23.5511C40.0673 24.3721 39.9593 25.1937 39.8546 26.0136C39.7234 27.0158 39.5995 28.0216 39.4902 29.0238C39.4663 29.2167 39.4572 29.3123 39.4046 29.3598C39.3715 29.3896 39.3212 29.4004 39.239 29.4043C39.186 29.4101 39.1155 29.4101 39.0201 29.4101H33.2073V47.9927L33.1599 47.9928V47.9963H45.5216C45.6012 47.9654 45.6828 47.9398 45.7658 47.9198C46.3119 47.8429 46.8183 47.5911 47.2092 47.2021C47.6001 46.8132 47.8545 46.308 47.9342 45.7623C47.9559 45.6806 47.9828 45.6003 48.0144 45.5218V2.51826C47.9826 2.425 47.9558 2.33011 47.9342 2.234C47.8551 1.68991 47.6023 1.18595 47.2135 0.797175C46.8248 0.408404 46.3208 0.155638 45.7767 0.0765314C45.6807 0.0561388 45.5858 0.0305916 45.4925 0H2.52899C2.43581 0.0310398 2.34091 0.0565938 2.24474 0.0765314C1.70066 0.155638 1.19667 0.408404 0.807903 0.797175C0.419133 1.18595 0.166366 1.68991 0.0872597 2.234C0.0673221 2.33016 0.041782 2.42508 0.0107422 2.51826Z" fill="white"/>
</svg>
