<svg width="16" height="25" viewBox="0 0 16 32" fill="white" xmlns="http://www.w3.org/2000/svg">
<path d="M4.7811 31.1211C4.7811 31.0485 4.7811 30.9722 4.7811 30.8996V17.3306H0.313772C0.117646 17.3306 0.117676 17.3306 0.117676 17.1381C0.117676 15.4674 0.117676 13.7955 0.117676 12.1224C0.117676 11.9698 0.161226 11.9335 0.310136 11.9335H4.78474V11.7701C4.78474 10.3827 4.78474 8.99162 4.78474 7.60058C4.78775 6.48879 5.03576 5.39132 5.51113 4.38628C6.13777 3.04324 7.25184 1.98889 8.62734 1.43713C9.56143 1.04973 10.5654 0.859323 11.5765 0.877816C12.7423 0.895976 13.9082 0.946822 15.0741 0.990406C15.292 0.990406 15.5063 1.03398 15.7242 1.04487C15.8441 1.04487 15.8876 1.09573 15.884 1.21559C15.884 1.90929 15.884 2.60298 15.884 3.29306C15.884 4.11025 15.884 4.92746 15.884 5.74102C15.884 5.8863 15.844 5.92986 15.6988 5.92623C14.8126 5.92623 13.93 5.92623 13.0438 5.92623C12.6397 5.93566 12.2373 5.98186 11.8416 6.06425C11.4946 6.12935 11.1768 6.30182 10.9331 6.55728C10.6894 6.81274 10.532 7.1383 10.4833 7.48799C10.4233 7.79199 10.3906 8.1007 10.3852 8.4105C10.3852 9.54367 10.3852 10.6768 10.3852 11.81C10.3852 11.8427 10.3852 11.8754 10.3852 11.9299H15.47C15.6843 11.9299 15.6879 11.9299 15.6624 12.1333C15.5462 13.0231 15.4264 13.9129 15.2993 14.8027C15.2012 15.5291 15.1104 16.2919 15.0196 17.0364C14.9869 17.3197 14.9942 17.3233 14.7072 17.3233H10.3489V30.787C10.3489 30.896 10.3489 31.0049 10.3489 31.1139L4.7811 31.1211Z" fill="black"/>
</svg>
