<svg width="49" height="48" viewBox="0 0 49 48" fill="none" xmlns="http://www.w3.org/2000/svg">
<path d="M24.0108 0C19.264 0 14.6238 1.40757 10.6771 4.04472C6.73028 6.68188 3.65416 10.4302 1.83766 14.8156C0.0211529 19.201 -0.454143 24.0266 0.471902 28.6822C1.39795 33.3377 3.68372 37.6141 7.04018 40.9706C10.3966 44.327 14.673 46.6128 19.3286 47.5388C23.9841 48.4649 28.8097 47.9896 33.1952 46.1731C37.5806 44.3566 41.3289 41.2804 43.966 37.3337C46.6032 33.3869 48.0107 28.7467 48.0107 24C48.0107 17.6348 45.4822 11.5303 40.9813 7.02943C36.4804 2.52856 30.376 0 24.0108 0ZM31.7141 13.9322C30.8279 13.9322 29.9417 13.9322 29.0592 13.9322C28.6537 13.9383 28.2498 13.9845 27.8534 14.0702C27.5073 14.1353 27.1904 14.3073 26.9473 14.5621C26.7043 14.8169 26.5473 15.1416 26.4987 15.4903C26.4369 15.7953 26.4041 16.1053 26.4006 16.4165C26.4006 17.546 26.4006 18.6792 26.4006 19.8123C26.4006 19.8487 26.4006 19.8813 26.4006 19.9322H31.4853C31.6996 19.9322 31.7033 19.9322 31.6778 20.1356C31.5616 21.0254 31.4418 21.9152 31.3146 22.8087C31.2202 23.5351 31.1258 24.2942 31.0386 25.0424C31.0023 25.3257 31.0096 25.3257 30.7263 25.3257H26.3679V38.8002C26.3679 38.9092 26.3679 39.0145 26.3679 39.1235H20.7601C20.7601 39.0508 20.7601 38.9782 20.7601 38.9019V25.3293H16.2964C16.1003 25.3293 16.0967 25.3293 16.0967 25.1368C16.0967 23.4661 16.0967 21.7954 16.0967 20.1247C16.0967 19.9721 16.1439 19.9322 16.2929 19.9322C17.7166 19.9322 19.1403 19.9322 20.564 19.9322H20.7638V19.7724C20.7638 18.3813 20.7638 16.9903 20.7638 15.6029C20.7654 14.4898 21.0135 13.3908 21.4902 12.385C22.1146 11.0425 23.2279 9.98892 24.6027 9.43946C25.5377 9.05053 26.543 8.85887 27.5555 8.8765C28.7214 8.89466 29.8872 8.94915 31.0531 8.9891C31.271 8.9891 31.4853 9.03268 31.7032 9.0472C31.8231 9.0472 31.8631 9.09805 31.8631 9.21791C31.8631 9.90798 31.8631 10.6017 31.8631 11.2954C31.8631 12.1126 31.8631 12.9261 31.8631 13.7433C31.8885 13.8886 31.8558 13.9322 31.7141 13.9322Z" fill="white"/>
</svg>
