<?xml version="1.0" encoding="utf-8"?>
<!-- Generator: Adobe Illustrator 22.1.0, SVG Export Plug-In . SVG Version: 6.00 Build 0)  -->
<svg version="1.1" id="Layer_1" xmlns="http://www.w3.org/2000/svg" xmlns:xlink="http://www.w3.org/1999/xlink" x="0px" y="0px"
	 viewBox="0 0 43 43" xml:space="preserve">
<style type="text/css">
	.family-fill{fill:none;stroke:#91D2DC;}
</style>
<path class="family-fill" d="M39.5,24.6v8.6c0,1.3-0.4,2.4-1,3.3"/>
<path class="family-fill" d="M29.6,35.4c-0.6-0.8-1-1.8-1-2.9v-8"/>
<path class="family-fill" d="M32.5,35.4c-2.7,0.5-4.8,2-5.9,4"/>
<path class="family-fill" d="M42.4,39.4c-1.1-2-3.3-3.4-5.9-4"/>
<path class="family-fill" d="M39.5,26.5c1.1,0,2,0.9,2,2s-0.9,2-2,2"/>
<path class="family-fill" d="M28.6,30.5c-1.1,0-2-0.9-2-2s0.9-2,2-2"/>
<path class="family-fill" d="M36.5,34.5v1.9c0,1.1-0.9,2-2,2s-2-0.9-2-2v-1.9"/>
<path class="family-fill" d="M39.5,29.8c0,2.6-2,4.7-4.5,4.7h-1.9c-2.5,0-4.5-2.1-4.5-4.7v-8.5c0-2.6,2-4.7,4.5-4.7H35
	c2.5,0,4.5,2.1,4.5,4.7V29.8z"/>
<path class="family-fill" d="M35,16.6h-1.9c-2.5,0-4.5,2-4.5,4.5v5.4c2.2-0.2,4.4-2.3,5.4-5.3c1.1,3,3.2,5.1,5.4,5.3v-5.4
	C39.5,18.7,37.5,16.6,35,16.6z"/>
<path class="family-fill" d="M32.5,29.5v0.8c0,0.6,0.7,1.2,1.5,1.2h1c0.8,0,1.5-0.5,1.5-1.2v-0.8H32.5z"/>
<path class="family-fill" d="M1,41v-5.3c0-2.4,1.9-4.3,4.2-4.3h18.2"/>
<path class="family-fill" d="M24.8,12.4v7c0,4.9-4.3,8.9-9.6,8.9s-9.6-4-9.6-8.9v-7.1"/>
<path class="family-fill" d="M11.6,3.2c-1.5,0-2.9,0.8-3.7,2H5.4C3.5,5.2,2,6.7,2,8.5v12.3h3.4v-7.3c0-1.3,1.1-2.4,2.4-2.4h1.4H21h2.2
	c2.4,0,4.4-1.9,4.4-4.4V3.2H11.6z"/>
<path class="family-fill" d="M17,33v4.8"/>
<path class="family-fill" d="M13.8,33v4.8"/>
<path class="family-fill" d="M10.6,21.8c0.1,2.7,1.8,4.8,4,4.8s3.9-2.1,4-4.8H10.6z"/>
</svg>
