<?xml version="1.0" encoding="utf-8"?>
<!-- Generator: Adobe Illustrator 22.1.0, SVG Export Plug-In . SVG Version: 6.00 Build 0) -->
<svg version="1.1" id="Layer_1" xmlns="http://www.w3.org/2000/svg" xmlns:xlink="http://www.w3.org/1999/xlink" x="0px" y="0px" viewBox="0 0 43 39" style="enable-background:new 0 0 43 39;" xml:space="preserve">
	<style type="text/css">
		.family-1 {
			fill: none;
			stroke: #91D2DC;
		}
	</style>
	<path class="family-1" d="M39.5,22.6v8.6c0,1.3-0.4,2.4-1,3.3"/>
	<path class="family-1" d="M29.6,33.4c-0.6-0.8-1-1.8-1-2.9v-8"/>
	<path class="family-1" d="M32.5,33.4c-2.7,0.5-4.8,2-5.9,4"/>
	<path class="family-1" d="M42.4,37.4c-1.1-2-3.3-3.4-5.9-4"/>
	<path class="family-1" d="M39.5,24.5c1.1,0,2,0.9,2,2c0,1.1-0.9,2-2,2"/>
	<path class="family-1" d="M28.6,28.5c-1.1,0-2-0.9-2-2c0-1.1,0.9-2,2-2"/>
	<path class="family-1" d="M36.5,32.5v1.9c0,1.1-0.9,2-2,2c-1.1,0-2-0.9-2-2v-1.9"/>
	<path class="family-1" d="M39.5,27.8c0,2.6-2,4.7-4.5,4.7h-1.9c-2.5,0-4.5-2.1-4.5-4.7v-8.5c0-2.6,2-4.7,4.5-4.7H35
	c2.5,0,4.5,2.1,4.5,4.7V27.8z"/>
	<path class="family-1" d="M35,14.6h-1.9c-2.5,0-4.5,2-4.5,4.5v5.4c2.2-0.2,4.4-2.3,5.4-5.3c1.1,3,3.2,5.1,5.4,5.3v-5.4
	C39.5,16.7,37.5,14.6,35,14.6z"/>
	<path class="family-1" d="M32.5,27.5v0.8c0,0.6,0.7,1.2,1.5,1.2h1c0.8,0,1.5-0.5,1.5-1.2v-0.8H32.5z"/>
	<path class="family-1" d="M1,39v-5.3c0-2.4,1.9-4.3,4.2-4.3h18.2"/>
	<path class="family-1" d="M24.8,10.4v7c0,4.9-4.3,8.9-9.6,8.9c-5.3,0-9.6-4-9.6-8.9v-7.1"/>
	<path class="family-1" d="M11.6,1.2c-1.5,0-2.9,0.8-3.7,2H5.4C3.5,3.2,2,4.7,2,6.5v12.3h3.4v-7.3c0-1.3,1.1-2.4,2.4-2.4
	h1.4H21h2.2c2.4,0,4.4-1.9,4.4-4.4V1.2H11.6z"/>
	<path class="family-1" d="M17,31v4.8"/>
	<path class="family-1" d="M13.8,31v4.8"/>
	<path class="family-1" d="M10.6,19.8c0.1,2.7,1.8,4.8,4,4.8c2.2,0,3.9-2.1,4-4.8H10.6z"/>
</svg>
