<svg width="22" height="22" viewBox="0 0 22 22" fill="none" xmlns="http://www.w3.org/2000/svg">
<path fill-rule="evenodd" clip-rule="evenodd" d="M15.2265 5.89117C14.0814 4.81874 12.5656 4.23135 10.9969 4.25219C9.60557 4.26342 8.2527 4.71 7.12812 5.52925C6.00354 6.34851 5.1637 7.49932 4.72646 8.82018L4.72644 8.82016C4.49677 9.52348 4.37902 10.2585 4.37751 10.9984C4.37731 11.7275 4.49492 12.4517 4.72574 13.1431L4.73696 13.1344C5.17084 14.4553 6.00837 15.6067 7.13145 16.4262C8.25453 17.2458 9.60652 17.6921 10.9968 17.7024C12.3479 17.7526 13.6814 17.3832 14.814 16.645L14.8428 16.6673C15.4259 16.2566 15.9215 15.7339 16.3006 15.1296C16.6859 14.5153 16.9428 13.8294 17.0559 13.1133H10.9969V8.98938H21.3384C21.5053 9.7282 21.5834 10.4843 21.571 11.2417C21.625 12.752 21.3601 14.2568 20.7934 15.6579C20.2268 17.059 19.3712 18.3249 18.2825 19.3731L18.257 19.3534C16.2632 21.1282 13.6658 22.0738 10.9968 21.9955C8.95537 21.9927 6.95524 21.4201 5.22159 20.3422C3.49573 19.2691 2.1022 17.7376 1.19631 15.9189L1.17357 15.9365C0.401936 14.4047 0 12.7135 0 10.9984C0 9.28327 0.401936 7.59203 1.17357 6.0603L1.1736 6.06032C2.08681 4.23781 3.48952 2.70562 5.22455 1.63547C6.95958 0.565318 8.95835 -0.000501059 10.9969 0.00142534C13.7412 -0.0436122 16.3955 0.980184 18.3987 2.85642L15.2265 5.89117Z" fill="black"/>
</svg>
