<svg width="48" height="48" viewBox="0 0 48 48" fill="none" xmlns="http://www.w3.org/2000/svg">
<path d="M24 0C17.4819 0 16.6646 0.0276562 14.1048 0.144469C11.5503 0.261 9.80559 0.666656 8.27897 1.26C6.70078 1.87331 5.36231 2.694 4.02816 4.02825C2.69391 5.36241 1.87322 6.70087 1.25991 8.27906C0.666562 9.80559 0.260906 11.5503 0.144375 14.1048C0.0275625 16.6646 0 17.4819 0 24C0 30.5179 0.0275625 31.3352 0.144375 33.895C0.260906 36.4495 0.666562 38.1942 1.25991 39.7207C1.87322 41.2989 2.69391 42.6374 4.02816 43.9717C5.36231 45.3059 6.70078 46.1266 8.27897 46.7399C9.80559 47.3332 11.5503 47.7389 14.1048 47.8554C16.6646 47.9722 17.4819 47.9998 24 47.9998C30.5179 47.9998 31.3352 47.9722 33.895 47.8554C36.4495 47.7389 38.1942 47.3332 39.7207 46.7399C41.2989 46.1266 42.6374 45.3059 43.9717 43.9717C45.3059 42.6374 46.1266 41.2989 46.7399 39.7207C47.3332 38.1942 47.7389 36.4495 47.8554 33.895C47.9722 31.3352 47.9998 30.5179 47.9998 24C47.9998 17.4819 47.9722 16.6646 47.8554 14.1048C47.7389 11.5503 47.3332 9.80559 46.7399 8.27906C46.1266 6.70087 45.3059 5.36241 43.9717 4.02825C42.6374 2.694 41.2989 1.87331 39.7207 1.26C38.1942 0.666656 36.4495 0.261 33.895 0.144469C31.3352 0.0276562 30.5179 0 24 0V0ZM24 4.32441C30.4082 4.32441 31.1673 4.34878 33.698 4.46428C36.0379 4.57106 37.3087 4.962 38.1544 5.29059C39.2746 5.72597 40.0741 6.24609 40.9139 7.08591C41.7538 7.92572 42.2738 8.72531 42.7092 9.84544C43.0379 10.6912 43.4288 11.9619 43.5356 14.3018C43.651 16.8326 43.6755 17.5917 43.6755 24C43.6755 30.4082 43.651 31.1673 43.5356 33.698C43.4288 36.0379 43.0379 37.3087 42.7092 38.1544C42.2738 39.2746 41.7538 40.0741 40.9139 40.9139C40.0741 41.7538 39.2746 42.2738 38.1544 42.7092C37.3087 43.0379 36.0379 43.4288 33.698 43.5355C31.1677 43.651 30.4087 43.6755 24 43.6755C17.5912 43.6755 16.8323 43.651 14.3018 43.5355C11.9619 43.4288 10.6912 43.0379 9.84544 42.7092C8.72522 42.2738 7.92572 41.7538 7.08581 40.9139C6.246 40.0741 5.72587 39.2746 5.29059 38.1544C4.96191 37.3087 4.57097 36.0379 4.46419 33.698C4.34869 31.1673 4.32431 30.4082 4.32431 24C4.32431 17.5917 4.34869 16.8326 4.46419 14.3018C4.57097 11.9619 4.96191 10.6912 5.29059 9.84544C5.72587 8.72531 6.246 7.92572 7.08581 7.08591C7.92572 6.24609 8.72522 5.72597 9.84544 5.29059C10.6912 4.962 11.9619 4.57106 14.3018 4.46428C16.8326 4.34878 17.5917 4.32441 24 4.32441Z" fill="url(#paint0_linear)"/>
<path d="M24.002 31.9991C19.5837 31.9991 16.002 28.4173 16.002 23.9992C16.002 19.5808 19.5837 15.9991 24.002 15.9991C28.4202 15.9991 32.0019 19.5808 32.0019 23.9992C32.0019 28.4173 28.4202 31.9991 24.002 31.9991ZM24.002 11.6748C17.1954 11.6748 11.6777 17.1926 11.6777 23.9992C11.6777 30.8056 17.1954 36.3234 24.002 36.3234C30.8085 36.3234 36.3262 30.8056 36.3262 23.9992C36.3262 17.1926 30.8085 11.6748 24.002 11.6748Z" fill="url(#paint1_linear)"/>
<path d="M39.6916 11.1885C39.6916 12.7792 38.4022 14.0685 36.8116 14.0685C35.2211 14.0685 33.9316 12.7792 33.9316 11.1885C33.9316 9.59794 35.2211 8.30859 36.8116 8.30859C38.4022 8.30859 39.6916 9.59794 39.6916 11.1885Z" fill="url(#paint2_linear)"/>
<defs>
<linearGradient id="paint0_linear" x1="28.2009" y1="-2.54328" x2="14.1742" y2="43.7973" gradientUnits="userSpaceOnUse">
<stop stop-color="#515BD4"/>
<stop offset="0.26" stop-color="#9510B8"/>
<stop offset="0.66" stop-color="#E51804"/>
<stop offset="1" stop-color="#FEDA77"/>
</linearGradient>
<linearGradient id="paint1_linear" x1="28.203" y1="-2.5441" x2="14.1763" y2="43.7965" gradientUnits="userSpaceOnUse">
<stop stop-color="#515BD4"/>
<stop offset="0.26" stop-color="#9510B8"/>
<stop offset="0.66" stop-color="#E51804"/>
<stop offset="1" stop-color="#FFBF00"/>
</linearGradient>
<linearGradient id="paint2_linear" x1="28.2015" y1="-2.54347" x2="14.1748" y2="43.7972" gradientUnits="userSpaceOnUse">
<stop stop-color="#515BD4"/>
<stop offset="0.26" stop-color="#9510B8"/>
<stop offset="0.66" stop-color="#E51804"/>
<stop offset="1" stop-color="#FFBF00"/>
</linearGradient>
</defs>
</svg>
