<svg width="48" height="48" viewBox="0 0 48 48" fill="white" xmlns="http://www.w3.org/2000/svg">
<circle cx="24" cy="24" r="23.25" stroke="none" stroke-width="3"/>
<path d="M23.9989 12.5245C27.737 12.5245 28.1793 12.5389 29.6558 12.6062C31.0206 12.6684 31.7619 12.8962 32.2553 13.088C32.8641 13.3121 33.4148 13.6701 33.8668 14.1354C34.3322 14.5874 34.6901 15.1381 34.9143 15.7469C35.106 16.2404 35.3338 16.9817 35.396 18.3464C35.4633 19.8229 35.4777 20.2652 35.4777 24.0033C35.4777 27.7414 35.4633 28.1838 35.396 29.6602C35.3338 31.025 35.106 31.7663 34.9143 32.2597C34.6811 32.8633 34.3243 33.4115 33.8668 33.869C33.4093 34.3265 32.8611 34.6833 32.2575 34.9165C31.7641 35.1082 31.0228 35.336 29.658 35.3983C28.1821 35.4655 27.7392 35.48 24.0011 35.48C20.263 35.48 19.8201 35.4655 18.3442 35.3983C16.9794 35.336 16.2382 35.1082 15.7447 34.9165C15.1359 34.6923 14.5852 34.3344 14.1332 33.869C13.6678 33.417 13.3099 32.8663 13.0857 32.2575C12.894 31.7641 12.6662 31.0228 12.604 29.658C12.5367 28.1815 12.5223 27.7392 12.5223 24.0011C12.5223 20.263 12.5367 19.8207 12.604 18.3442C12.6662 16.9794 12.894 16.2382 13.0857 15.7447C13.3099 15.1359 13.6678 14.5852 14.1332 14.1332C14.5852 13.6678 15.1359 13.3099 15.7447 13.0857C16.2382 12.894 16.9794 12.6662 18.3442 12.604C19.8207 12.5367 20.263 12.5223 24.0011 12.5223L23.9989 12.5245ZM24.0011 10C20.1991 10 19.7223 10.0161 18.2292 10.0845C16.736 10.1528 15.7191 10.3912 14.83 10.7368C13.8957 11.0886 13.0492 11.6396 12.3494 12.3517C11.6374 13.0514 11.0863 13.8979 10.7346 14.8323C10.389 15.7214 10.1523 16.7405 10.0845 18.2303C10.0167 19.7201 10 20.1991 10 24.0011C10 27.8031 10.0161 28.2799 10.0845 29.773C10.1528 31.2662 10.389 32.2809 10.7346 33.17C11.0865 34.1039 11.6375 34.95 12.3494 35.6494C13.049 36.3619 13.8955 36.9132 14.83 37.2648C15.7191 37.611 16.7383 37.8477 18.2281 37.9155C19.7179 37.9833 20.198 38 24 38C27.802 38 28.2788 37.9839 29.7719 37.9155C31.2651 37.8472 32.2786 37.611 33.1677 37.2648C34.098 36.9054 34.9428 36.3554 35.648 35.6503C36.3532 34.9451 36.9032 34.1002 37.2626 33.17C37.6088 32.2809 37.8455 31.2617 37.9133 29.7719C37.9811 28.2821 37.9978 27.802 37.9978 24C37.9978 20.198 37.9817 19.7212 37.9133 18.2281C37.845 16.7349 37.6088 15.7214 37.2626 14.8323C36.9112 13.8982 36.3603 13.0521 35.6483 12.3528C34.9487 11.6403 34.1022 11.0889 33.1677 10.7368C32.2786 10.3912 31.2595 10.1545 29.7697 10.0867C28.2799 10.0189 27.8009 10.0022 23.9989 10.0022L24.0011 10Z" fill="black"/>
<path d="M23.9989 16.8127C22.5772 16.8127 21.1874 17.2343 20.0053 18.0242C18.8232 18.8141 17.9018 19.9367 17.3577 21.2503C16.8137 22.5638 16.6713 24.0091 16.9487 25.4035C17.226 26.7979 17.9107 28.0788 18.916 29.0841C19.9213 30.0894 21.2021 30.774 22.5965 31.0514C23.991 31.3287 25.4363 31.1864 26.7498 30.6423C28.0633 30.0982 29.186 29.1769 29.9758 27.9948C30.7657 26.8126 31.1873 25.4229 31.1873 24.0011C31.1874 23.0571 31.0015 22.1223 30.6403 21.2502C30.279 20.378 29.7496 19.5855 29.082 18.918C28.4145 18.2505 27.6221 17.721 26.7499 17.3598C25.8777 16.9986 24.9429 16.8127 23.9989 16.8127ZM23.9989 28.6689C23.0757 28.6689 22.1733 28.3951 21.4057 27.8822C20.638 27.3693 20.0398 26.6403 19.6865 25.7874C19.3332 24.9345 19.2407 23.9959 19.4208 23.0905C19.6009 22.185 20.0455 21.3533 20.6983 20.7005C21.3511 20.0477 22.1828 19.6031 23.0883 19.423C23.9938 19.2429 24.9323 19.3354 25.7852 19.6887C26.6381 20.042 27.3671 20.6402 27.88 21.4078C28.3929 22.1755 28.6667 23.0779 28.6667 24.0011C28.6667 25.2391 28.1749 26.4264 27.2995 27.3017C26.4242 28.1771 25.2369 28.6689 23.9989 28.6689Z" fill="black"/>
<path d="M31.4718 18.2081C32.3995 18.2081 33.1516 17.456 33.1516 16.5282C33.1516 15.6005 32.3995 14.8484 31.4718 14.8484C30.544 14.8484 29.7919 15.6005 29.7919 16.5282C29.7919 17.456 30.544 18.2081 31.4718 18.2081Z" fill="black"/>
</svg>
