<?xml version="1.0" encoding="utf-8"?>
<!-- Generator: Adobe Illustrator 22.1.0, SVG Export Plug-In . SVG Version: 6.00 Build 0)  -->
<svg version="1.1" id="Layer_1" xmlns="http://www.w3.org/2000/svg" xmlns:xlink="http://www.w3.org/1999/xlink" x="0px" y="0px"
	 viewBox="0 0 52 40" style="enable-background:new 0 0 52 40;" xml:space="preserve">
<style type="text/css">
	.st0{fill:none;stroke:#91D2DC;}
	.st1{filter:url(#Adobe_OpacityMaskFilter);}
	.st2{fill:#FFFFFF;}
	.st3{mask:url(#b_1_);fill:none;stroke:#91D2DC;}
</style>
<g>
	<path class="st0" d="M3.5,34.8H47V3.5H3.5V34.8z"/>
	<g>
		<path class="st0" d="M31,11.3c-1.8-1-2.2-1.1-4.7-0.4c-0.3,0.1-0.7,0.1-1,0.2c-0.3,0-0.7-0.1-1-0.2c-2.5-0.6-2.9-0.6-4.7,0.4
			c-1.6,0.8-2.4,3.2-2,5.8c0.5,3.1,1.7,3.3,1.7,6.6c0,3.3,1.2,4.9,2.2,4.9c1,0,1.5-1.1,2.5-4c0.7-1.9,1.8-2.2,2.7,0
			c1.1,2.8,1.5,4,2.5,4c1,0,2.2-1.6,2.2-4.9c0-3.3,1.2-3.5,1.7-6.6C33.5,14.5,32.6,12.1,31,11.3z M47.2,10.9c-1.2-0.6-1.9-0.6-4,0
			c-0.4,0.1-0.7,0.2-1,0.2c-0.3,0-0.7-0.1-1-0.2c-2.5-0.6-2.9-0.6-4.7,0.4c-1.6,0.8-2.4,3.2-2,5.8c0.5,3.1,1.7,3.3,1.7,6.6
			c0,3.3,1.2,4.9,2.2,4.9c1,0,1.5-1.1,2.5-4c0.7-1.9,1.8-2.2,2.7,0c1.1,2.8,1.5,4,2.5,4c0.3,0,0.7-0.2,1-0.5 M3.4,27.9
			c0.4,0.5,0.8,0.8,1.2,0.8c1,0,1.5-1.1,2.5-4c0.7-1.9,1.8-2.2,2.7,0c1.1,2.8,1.5,4,2.5,4s2.2-1.6,2.2-4.9c0-3.3,1.2-3.5,1.7-6.6
			c0.4-2.6-0.4-5-2-5.8c-1.8-1-2.2-1.1-4.7-0.4c-0.3,0.1-0.7,0.1-1,0.2c-0.3,0-0.7-0.1-1-0.2c-2-0.5-2.7-0.6-3.9,0 M5.9,32.5h9.6
			 M19.7,32.5h-2.4"/>
		<defs>
			<filter id="Adobe_OpacityMaskFilter" filterUnits="userSpaceOnUse" x="0.4" y="0.4" width="51.3" height="39.2">
				<feColorMatrix  type="matrix" values="1 0 0 0 0  0 1 0 0 0  0 0 1 0 0  0 0 0 1 0"/>
			</filter>
		</defs>
		<mask maskUnits="userSpaceOnUse" x="0.4" y="0.4" width="51.3" height="39.2" id="b_1_">
			<g class="st1">
				<path id="a_1_" class="st2" d="M0,40h52.2V0H0V40z"/>
			</g>
		</mask>
		<path class="st3" d="M0.9,39.1h50.3V0.9H0.9V39.1z"/>
	</g>
</g>
</svg>
