<?xml version="1.0" encoding="utf-8"?>
<!-- Generator: Adobe Illustrator 22.1.0, SVG Export Plug-In . SVG Version: 6.00 Build 0) -->
<svg version="1.1" id="Layer_1" xmlns="http://www.w3.org/2000/svg" xmlns:xlink="http://www.w3.org/1999/xlink" x="0px" y="0px" viewBox="0 0 51.3 39.2" style="enable-background:new 0 0 51.3 39.2;" xml:space="preserve">
	<style type="text/css">
		.knowledge-1 {
			fill: none;
			stroke: #91D2DC;
		}
	</style>
	<path class="knowledge-1" d="M3.7,35.2h43.5V3.9H3.7V35.2z"/>
	<path
		class="knowledge-1"
		d="M31.2,11.7c-1.8-1-2.2-1.1-4.7-0.4c-0.3,0.1-0.7,0.1-1,0.2c-0.3,0-0.7-0.1-1-0.2c-2.5-0.6-2.9-0.6-4.7,0.4
	c-1.6,0.8-2.4,3.2-2,5.8c0.5,3.1,1.7,3.3,1.7,6.6s1.2,4.9,2.2,4.9s1.5-1.1,2.5-4c0.7-1.9,1.8-2.2,2.7,0c1.1,2.8,1.5,4,2.5,4
	s2.2-1.6,2.2-4.9s1.2-3.5,1.7-6.6C33.7,14.9,32.8,12.5,31.2,11.7z M47.4,11.3c-1.2-0.6-1.9-0.6-4,0c-0.4,0.1-0.7,0.2-1,0.2
	s-0.7-0.1-1-0.2c-2.5-0.6-2.9-0.6-4.7,0.4c-1.6,0.8-2.4,3.2-2,5.8c0.5,3.1,1.7,3.3,1.7,6.6s1.2,4.9,2.2,4.9s1.5-1.1,2.5-4
	c0.7-1.9,1.8-2.2,2.7,0c1.1,2.8,1.5,4,2.5,4c0.3,0,0.7-0.2,1-0.5 M3.6,28.3c0.4,0.5,0.8,0.8,1.2,0.8c1,0,1.5-1.1,2.5-4
	c0.7-1.9,1.8-2.2,2.7,0c1.1,2.8,1.5,4,2.5,4s2.2-1.6,2.2-4.9s1.2-3.5,1.7-6.6c0.4-2.6-0.4-5-2-5.8c-1.8-1-2.2-1.1-4.7-0.4
	c-0.3,0.1-0.7,0.1-1,0.2c-0.3,0-0.7-0.1-1-0.2c-2-0.5-2.7-0.6-3.9,0 M6.1,32.9h9.6 M19.9,32.9h-2.4"/>
	<path class="knowledge-1" d="M0.5,38.7h50.3V0.5H0.5V38.7z"/>
</svg>
