<?xml version="1.0" encoding="utf-8"?>
<!-- Generator: Adobe Illustrator 22.1.0, SVG Export Plug-In . SVG Version: 6.00 Build 0)  -->
<svg version="1.1" id="Layer_1" xmlns="http://www.w3.org/2000/svg" xmlns:xlink="http://www.w3.org/1999/xlink" x="0px" y="0px"
	 viewBox="0 0 159.5 103" style="enable-background:new 0 0 159.5 103;" xml:space="preserve">
<style type="text/css">
	.loader-icon-0{fill:#D19313;stroke:#D19313;stroke-width:0.81;stroke-linejoin:round;}
	.loader-icon-1{fill:#D19313;stroke:#D19313;stroke-width:0.54;stroke-linejoin:round;}
</style>
<title>abbott-logo</title>
<path class="loader-icon-0" d="M0.4,88.1v14.5h8.7v-3c0-21-4-64.2,49.7-96.6C23.4,20.1,0,42.3,0.4,88.1z"/>
<path class="loader-icon-0" d="M10.9,88.1v14.5H19c0.2,0,0.4,0,0.5,0v-3.1c0-21-2.6-65,53.9-98.8C36.7,17.1,10.5,42.3,10.9,88.1z"/>
<path class="loader-icon-0" d="M21.4,88.1v14.5c2.9,0,5.8,0,8.6,0l0,0v-3.1c0-21-4.2-64,55.9-99.1C49.2,17.9,21,42.2,21.4,88.1z"/>
<path class="loader-icon-0" d="M31.9,88.1v14.5c2.9,0,5.8,0,8.7-0.1v-2.9c0-21-1.7-67.1,56.1-97.7C59.6,16,31.5,42.2,31.9,88.1z"/>
<path class="loader-icon-1" d="M42.2,102.6c1.9-17.1,3-62.7,41.4-61c39,1.7,33.4,60.7,33.4,60.7s1.9-51.8-36.1-51.8
	c-32.6,0-29.1,52.1-29.1,52.1L42.2,102.6z"/>
<path class="loader-icon-1" d="M119.1,6.2C97.9-1.4,70.7,18,57.2,39c-8.4,13.1-12.1,26.9-13.9,38.2c-1.4,8.5-1.4,20.2-1.4,24.1v1.3
	c0.1,0,0.1,0,0.2,0.1h6C48.1,78.5,62.7-3,111.9,13c50.5,16.4,46.9,89.5,46.9,89.5S165.9,22.6,119.1,6.2z"/>
<path class="loader-icon-1" d="M148,102.4c0,0-0.4-69.5-44.9-81.3C73,13.2,64.5,32.8,64.5,32.8c2.5-7.2,25.4-33.3,53.3-14.5
	C153.1,42.1,148,102.4,148,102.4z"/>
<path class="loader-icon-1" d="M137.5,102.4c0,0,4.8-65.4-37.1-79.9c-18.7-6.5-30,2.6-33.5,6.6c-2.8,3.4-5.4,7-7.8,10.7
	c0,0,16.3-13.9,33.3-10C138.1,40.4,137.5,102.4,137.5,102.4z"/>
<path class="loader-icon-1" d="M127.5,102.4c0,0,4.1-62.6-38.6-71.3c-15.3-3.1-29.6,9.2-29.6,9.2l-4.2,12.8c0,0,12.5-16,31.1-13.1
	C128.5,46.5,127.5,102.4,127.5,102.4z"/>
</svg>
