<?xml version="1.0" encoding="utf-8"?>
<!-- Generator: Adobe Illustrator 22.1.0, SVG Export Plug-In . SVG Version: 6.00 Build 0)  -->
<svg version="1.1" xmlns="http://www.w3.org/2000/svg" xmlns:xlink="http://www.w3.org/1999/xlink" x="0px" y="0px"
	 viewBox="0 0 19 19" style="enable-background:new 0 0 19 19;" xml:space="preserve">
<style type="text/css">
	.phone-1{fill:#C58D24;}
</style>
<path class="phone-1" d="M18.5,13.7c-1-0.8-2.1-1.6-3.1-2.4c-0.5-0.3-1.1-0.4-1.5-0.2c-0.4,0.1-0.7,0.4-0.9,0.7c-0.7,0.8-1.4,1-2.1,1
	c-0.6-0.1-1.3-0.4-1.8-1L7.3,10c-0.6-0.6-0.9-1.2-1-1.8c-0.1-0.6,0.2-1.3,1-2.1c0.3-0.2,0.6-0.5,0.7-0.9C8.1,4.7,8,4.2,7.7,3.7
	c-0.8-1-1.6-2.1-2.4-3.1C4.8,0,4.2-0.1,3.7,0.1S2.8,0.6,2.5,0.9C1,2.3-0.3,4.3,0.1,6.7c0.3,2,1.7,3.8,3.8,5.9l2.5,2.5
	c2.1,2.1,4,3.5,5.9,3.8c2,0.3,4.1-0.6,5.8-2.4c0.3-0.3,0.6-0.7,0.8-1.2C19.1,14.8,19,14.2,18.5,13.7"/>
</svg>
