<?xml version="1.0" encoding="utf-8"?>
<!-- Generator: Adobe Illustrator 22.1.0, SVG Export Plug-In . SVG Version: 6.00 Build 0)  -->
<svg version="1.1" id="Layer_1" xmlns="http://www.w3.org/2000/svg" xmlns:xlink="http://www.w3.org/1999/xlink" x="0px" y="0px"
	 viewBox="0 0 36 36" style="enable-background:new 0 0 36 36;" xml:space="preserve">
<style type="text/css">
	.st0{filter:url(#Adobe_OpacityMaskFilter);}
	.st1{fill:#FFFFFF;}
	.st2{mask:url(#mask-2_1_);fill:#C58D24;}
	.st3{fill:#FEFEFE;}
</style>
<title>Scroll button</title>
<desc>Created with Sketch.</desc>
<g id="Clip-2">
</g>
<defs>
	<filter id="Adobe_OpacityMaskFilter" filterUnits="userSpaceOnUse" x="0.2" y="0.1" width="35.7" height="35.7">
		<feColorMatrix  type="matrix" values="1 0 0 0 0  0 1 0 0 0  0 0 1 0 0  0 0 0 1 0"/>
	</filter>
</defs>
<mask maskUnits="userSpaceOnUse" x="0.2" y="0.1" width="35.7" height="35.7" id="mask-2_1_">
	<g class="st0">
		<polygon id="path-1_1_" class="st1" points="0.2,0.1 35.9,0.1 35.9,35.8 0.2,35.8 		"/>
	</g>
</mask>
<path id="Fill-1" class="st2" d="M0.2,18c0-9.9,8-17.8,17.8-17.8c9.9,0,17.9,8,17.9,17.8s-8,17.8-17.9,17.8
	C8.2,35.8,0.2,27.8,0.2,18"/>
<path id="Fill-4" class="st3" d="M31.8,13.7c0.1-0.3,0.2-0.5,0.2-0.7c0-0.7-0.5-1-1.4-1c-0.9,0-1.4,0.2-1.6,0.7L17.7,22L7,12.7
	C6.8,12.2,6.2,12,5.4,12C4.5,12,4,12.3,4,13c0,0.2,0,0.5,0.2,0.7c8.4,7.5,13,11.3,13.5,11.3C18.3,25,23,21.2,31.8,13.7z"/>
</svg>
