<svg id="58f6ac35-67fe-4c7b-8d7f-c9c7368922e8" data-name="Layer 1" xmlns="http://www.w3.org/2000/svg" width="602.77" height="116.64" viewBox="0 0 602.77 116.64">
  <defs>
    <style>
      .\33 5c35bcb-f0c9-4cd8-8b69-d25a061df828 {
        isolation: isolate;
      }

      .\30 e722e40-937f-47a2-99b8-9d709f2e3623 {
        fill: #092c60;
      }
    </style>
  </defs>
  <title>testimonials</title>
  <g id="565fbf7e-ca5b-4cec-a899-9b3ff90be158" data-name="v2">
    <g id="076bd39d-ffc0-43e8-b9ab-90f0c205440e" data-name="Landing">
      <g id="9eed668f-6cac-40d2-8fef-fa6f0eb3cd53" data-name="Testimonials">
        <g class="35c35bcb-f0c9-4cd8-8b69-d25a061df828">
          <g class="35c35bcb-f0c9-4cd8-8b69-d25a061df828">
            <path class="0e722e40-937f-47a2-99b8-9d709f2e3623" d="M45.53,24.46l-32-1.58c-.19,0-.62.29-1.29.86a2.92,2.92,0,0,1-1.73.87,2.39,2.39,0,0,1-1-.15Q1,21.45,1,17.12C1,15.68,1.85,15,3.48,15q1.44,0,18.65,2.23a288.5,288.5,0,0,0,37.08,2.23,325.31,325.31,0,0,0,38.16-2.16Q116.81.42,136,.42c5.28,0,7.92,1.24,7.92,3.74q0,9.79-44.35,16.27Q84.85,35.11,64,68.38,56.19,80.62,48.55,92q-16.84,25.05-27.5,25.06-3.89,0-3.89-3.39T20,105.82q2.73-4.32,4.32-4.32h.15c1.24,0,1.87.72,1.87,2.16l-.58,2.74c0,.48.19.72.58.72Q34,107.12,52.3,76,59.64,63.48,71,47.5a184.44,184.44,0,0,1,22-26.2A377.54,377.54,0,0,1,45.53,24.46Zm87-21.31q-13.83,0-28.66,13.25a133.51,133.51,0,0,0,18.36-3.89q7.7-2.29,10.87-4.32t3.17-3.53C136.25,3.66,135,3.15,132.51,3.15Z" transform="translate(-1.03 -0.42)"/>
            <path class="0e722e40-937f-47a2-99b8-9d709f2e3623" d="M127.46,86.1a3.3,3.3,0,0,1,1.88-.72c.57,0,.86.33.86,1v.29a244.84,244.84,0,0,1-24.91,18.58q-9.95,6.19-18,6.19-6.48,0-6.48-6.34,0-9.34,9.5-19.22t16-9.86c2.39,0,3.6,1.34,3.6,4q-.72,7.92-22.76,21.31v1.44q0,4.76,5,4.75a21.73,21.73,0,0,0,10.73-3.31,141.43,141.43,0,0,0,21-15.12Zm-24.91-5.62q-3.17,0-8.13,5.33a27.39,27.39,0,0,0-6.7,12.09,62.32,62.32,0,0,0,11.66-8.85q4.75-4.68,4.76-6.63C104.14,81.13,103.61,80.48,102.55,80.48Z" transform="translate(-1.03 -0.42)"/>
            <path class="0e722e40-937f-47a2-99b8-9d709f2e3623" d="M166.34,86.1a3.92,3.92,0,0,1,1.95-.72c.52,0,.79.33.79,1v.29a257.78,257.78,0,0,1-23.4,17.57q-12.31,8.2-15.63,8.21a11.38,11.38,0,0,1-5.54-1.23c-1.49-.81-2.23-1.75-2.23-2.8a4.17,4.17,0,0,1,.86-2.67q.87-1.08,1.59-1.08c.48,0,1.27.75,2.37,2.23s2.19,2.24,3.24,2.24q3.32,0,5.19-7.06c1.24-4.7,1.87-7.94,1.87-9.72s-.12-2.66-.36-2.66a.9.9,0,0,0-.65.28l-4.18,3.32-.57-2.16q9.08-7.2,10.51-9.65c.58-1.54,1.39-2.31,2.45-2.31.67,0,1,.24,1,.72a10.93,10.93,0,0,1-1,3.1,69.72,69.72,0,0,0-2.66,10.73,93,93,0,0,0-1.66,9.65q0,1.29.72,1.29a192.82,192.82,0,0,0,21.31-15.41Z" transform="translate(-1.03 -0.42)"/>
            <path class="0e722e40-937f-47a2-99b8-9d709f2e3623" d="M254.33,48.94l-20.6-1q-12.66,0-25.2,1l.72,2.88q0,1.59-9.36,12T181.17,86.6q-9.36,12.32-9.36,18.22c0,1.53.56,2.3,1.66,2.3s3.62-1.34,7.56-4q10.93-7.2,20-14.55L204.21,86a3.17,3.17,0,0,1,1.73-.72q.72,0,.72.87v.43q.57,0-7.7,6.33t-17.71,12.68q-9.44,6.33-11.88,6.33-4.19,0-4.18-3.74,0-5.47,6.12-15.12A163,163,0,0,1,184.7,74.79q7.28-8.57,13.83-16.2t7.12-9.36a183.29,183.29,0,0,0-24.33,3.46l-2.88.57c-.77.1-1.15.82-1.15,2.16,0,.58-.68.87-2,.87a16.83,16.83,0,0,1-5-.94c-2-.62-3-1.51-3-2.66s1-1.92,2.88-2.31q21.32-3.74,30.24-4.53t11.88-1q3-.21,9.22-.36t8.42-.14q6.48-.3,15.19-.29t10.59.72a2.7,2.7,0,0,1,1.87,2.73C257.64,48.46,256.53,48.94,254.33,48.94Z" transform="translate(-1.03 -0.42)"/>
            <path class="0e722e40-937f-47a2-99b8-9d709f2e3623" d="M241.51,86a3.84,3.84,0,0,1,1.8-.72c.43,0,.65.29.65.87v.43q.57,0-7.71,6.33t-17.71,12.68q-9.43,6.33-11.88,6.33-4.17,0-4.17-3.45,0-4.19,7.2-15.77T220.2,81.06c1.63,0,2.45.62,2.45,1.87s-2.21,4.66-6.63,10.22-6.62,9.56-6.62,11.95c0,1.35.5,2,1.51,2s3.53-1.34,7.56-4q10.8-7.2,19.87-14.55ZM229.63,66.51a2.78,2.78,0,0,1,2.16.87,3.46,3.46,0,0,1,.79,2.44c0,1.06-.72,2.4-2.16,4s-2.69,2.44-3.74,2.44a2.74,2.74,0,0,1-2.31-.93,3.45,3.45,0,0,1-.72-2.16q0-1.23,2.31-4C227.49,67.43,228.72,66.51,229.63,66.51Z" transform="translate(-1.03 -0.42)"/>
            <path class="0e722e40-937f-47a2-99b8-9d709f2e3623" d="M252.16,84.94l-.28-1.58c0-.48,1-.72,3-.72,1.15,0,1.73.72,1.73,2.16s-1.66,4.63-5,9.58-5,7.51-5,7.7.19.29.58.29,4.82-3.36,13.32-10.08,13.61-10.08,15.33-10.08,2.6.6,2.6,1.8a7.73,7.73,0,0,1-1.44,4q-1.45,2.23-6.05,8.06t-4.9,6.27a1.79,1.79,0,0,0-.29,1c0,.38.31.57.94.57s5.35-3.26,14.18-9.79,13.87-9.79,15.12-9.79S298,84.9,298,86q0,2.88-6.34,10.08t-6.34,9.15c0,1.29.51,1.94,1.52,1.94s3.52-1.34,7.56-4q10.8-7.2,19.87-14.55L317.4,86a3.86,3.86,0,0,1,1.94-.72c.53,0,.79.29.79.87v.43q-30.37,25.35-37.58,25.34-4.19,0-4.18-3.45,0-2.88,4.18-8.5t4.17-6.12c0-.34-.12-.5-.36-.5s-4.17,2.73-11.8,8.2-12.17,8.21-13.61,8.21a2.24,2.24,0,0,1-1.73-.79,2.45,2.45,0,0,1-.72-1.66q0-2.58,6.19-10.51,6.19-7.77,6.19-8.49c0-.48-.28-.72-.86-.72s-7.49,5.28-20.45,15.84l-7.2,5.76c-1.25,1-2.18,1.58-2.81,1.58a3.6,3.6,0,0,1-1.8-.5,1.66,1.66,0,0,1-.86-1.52q0-1,2.52-4.89T246,94.3Q252.17,86,252.16,84.94Z" transform="translate(-1.03 -0.42)"/>
            <path class="0e722e40-937f-47a2-99b8-9d709f2e3623" d="M338.56,97.62q8.07,0,19.3-9.08l2.45.72Q346.19,101.08,336,101.07a8.09,8.09,0,0,1-1.73-.14,36.13,36.13,0,0,1-8.49,7.7c-3.08,2-5.76,3-8.07,3-3.65,0-5.47-2-5.47-6.12s3.41-9.52,10.22-16.34a22.75,22.75,0,0,1-1.72-8.78A9.44,9.44,0,0,1,324,72.85a11.35,11.35,0,0,1,7.7-2.88,10.36,10.36,0,0,1,7.42,2.88q3,2.88,3,8.21,0,8.2-5.33,16.41A7.42,7.42,0,0,0,338.56,97.62Zm-20.45,7q0,2.88,3.75,2.88t9.5-7.63a18,18,0,0,1-6.91-7.06Q318.11,99.78,318.11,104.67ZM334,96.18q4.47-7.49,4.47-12.75c0-3.5-.87-6.09-2.59-7.77s-3.41-2.52-5-2.52c-3.37,0-5,1.72-5,5.18a24.8,24.8,0,0,0,2.3,10.3A17.59,17.59,0,0,0,334,96.18Z" transform="translate(-1.03 -0.42)"/>
            <path class="0e722e40-937f-47a2-99b8-9d709f2e3623" d="M429.42,86.53Q399,111.88,391.84,111.87q-4.18,0-4.18-3.45c0-2.31,1-5,3.1-8.21A85.49,85.49,0,0,1,397,91.78c2.06-2.44,3.1-3.91,3.1-4.39s-.15-.72-.43-.72q-13.39,8.94-15.92,11t-8.2,6.62q-5.7,4.61-7.42,5.76a6.6,6.6,0,0,1-3.75,1.15c-1.34,0-2-.57-2-1.73q0-2,8.06-12.67,7.78-10.65,7.78-12c0-.19-.17-.29-.5-.29s-4.49,2.93-12.46,8.79l-.58-2.16q10.23-8.22,13.83-10.52t5.83-2.3a1.94,1.94,0,0,1,2.23,2.16q0,1.44-8.13,11.74t-8.14,11.08c0,.53.17.8.5.8s5.81-3.87,16.42-11.6,17.06-11.59,19.37-11.59a3,3,0,0,1,1.94.79,2.17,2.17,0,0,1,.94,1.52q0,1.73-7.63,11.44t-7.64,11c0,.86.6,1.3,1.8,1.3s3.77-1.3,7.71-3.89a219.46,219.46,0,0,0,19.87-14.55L426.69,86a3.27,3.27,0,0,1,1.87-.72.77.77,0,0,1,.86.87Z" transform="translate(-1.03 -0.42)"/>
            <path class="0e722e40-937f-47a2-99b8-9d709f2e3623" d="M464.13,86a3.77,3.77,0,0,1,1.8-.72c.43,0,.64.29.64.87v.43q.58,0-7.7,6.33t-17.71,12.68q-9.44,6.33-11.88,6.33-4.18,0-4.18-3.45,0-4.19,7.2-15.77t10.51-11.59c1.64,0,2.45.62,2.45,1.87s-2.21,4.66-6.62,10.22S432,102.71,432,105.1c0,1.35.51,2,1.52,2s3.52-1.34,7.56-4q10.8-7.2,19.87-14.55ZM452.25,66.51a2.78,2.78,0,0,1,2.16.87,3.51,3.51,0,0,1,.79,2.44c0,1.06-.72,2.4-2.16,4s-2.69,2.44-3.75,2.44a2.73,2.73,0,0,1-2.3-.93,3.45,3.45,0,0,1-.72-2.16q0-1.23,2.3-4C450.11,67.43,451.33,66.51,452.25,66.51Z" transform="translate(-1.03 -0.42)"/>
            <path class="0e722e40-937f-47a2-99b8-9d709f2e3623" d="M488.89,92.72c-.57,0-.86-.22-.86-.65s.33-.93,1-1.51c3.16-2.59,4.75-4.94,4.75-7.06,0-1.34-1.2-2.11-3.6-2.3q-6.48.15-15.48,9.36t-9,13.82q0,1.59,1.8,1.59t4.82-2.45q2.73-1.72,10.23-8.64a4.87,4.87,0,0,1,3.31-1.73c1.34,0,2,.63,2,1.87a1.55,1.55,0,0,1-.43,1.16c-.29.28-.82.88-1.58,1.8s-1.44,1.75-2,2.52q-2.6,3.73-2.59,4.89c0,1.92.77,2.88,2.3,2.88q3,0,11.38-5.54T510.2,91.57l6.92-5.47a3.27,3.27,0,0,1,1.87-.72c.57,0,.86.33.86,1v.29a257.78,257.78,0,0,1-23.4,17.57q-12.31,8.2-16.2,8.21c-3.07,0-4.61-1.64-4.61-4.9a5.42,5.42,0,0,1,.44-2.16,4.52,4.52,0,0,0,.43-1.44.57.57,0,0,0-.29-.57q-.44,0-5.54,3.88t-8.93,3.89q-3.83,0-3.82-4t5.4-10.87A55.37,55.37,0,0,1,477.8,83.79q9.07-5.61,17.72-5.61a5.55,5.55,0,0,1,3.38,1,3.62,3.62,0,0,1,1.37,3.1q0,2.09-4.18,6.26T488.89,92.72Z" transform="translate(-1.03 -0.42)"/>
            <path class="0e722e40-937f-47a2-99b8-9d709f2e3623" d="M562.19,86.1a3.27,3.27,0,0,1,1.87-.72c.57,0,.86.33.86,1v.29Q550,99.06,542.17,104q-10.08,7.64-17,7.63c-4,0-6-2.39-6-7.2q0-9.64,12.46-28.58a202.81,202.81,0,0,1,28-34.06q15.55-15.12,23.48-15.12c2.39,0,3.6,1.06,3.6,3.17q0,7.92-18.94,26.14a315.13,315.13,0,0,1-37.22,31q-5.34,10.23-5.33,15.55c0,3.55,1.24,5.33,3.74,5.33s5.76-1.44,9.79-4.32a136.86,136.86,0,0,0,19.88-14.4Zm17.28-54.87q-6.06,0-21.46,17.43A217.07,217.07,0,0,0,532.52,83.5a213.83,213.83,0,0,0,32.4-28.87q15.84-17.06,15.84-22.1A1.14,1.14,0,0,0,579.47,31.23Z" transform="translate(-1.03 -0.42)"/>
            <path class="0e722e40-937f-47a2-99b8-9d709f2e3623" d="M601.06,86.1a3.92,3.92,0,0,1,2-.72c.53,0,.79.33.79,1v.29a257.78,257.78,0,0,1-23.4,17.57q-12.31,8.2-15.62,8.21a11.39,11.39,0,0,1-5.55-1.23c-1.49-.81-2.23-1.75-2.23-2.8a4.12,4.12,0,0,1,.87-2.67c.57-.72,1.1-1.08,1.58-1.08s1.27.75,2.38,2.23,2.18,2.24,3.23,2.24q3.32,0,5.19-7.06t1.87-9.72c0-1.78-.12-2.66-.36-2.66a.9.9,0,0,0-.65.28l-4.17,3.32-.58-2.16q9.07-7.2,10.51-9.65c.58-1.54,1.39-2.31,2.45-2.31.67,0,1,.24,1,.72a10.93,10.93,0,0,1-1,3.1,69.72,69.72,0,0,0-2.66,10.73,93,93,0,0,0-1.66,9.65q0,1.29.72,1.29A192.82,192.82,0,0,0,597,89.26Z" transform="translate(-1.03 -0.42)"/>
          </g>
        </g>
      </g>
    </g>
  </g>
</svg>
