<svg id="50a113d9-6978-45d9-b10c-45ea47bb6fe1" data-name="Layer 1" xmlns="http://www.w3.org/2000/svg" width="456.43" height="128.96" viewBox="0 0 456.43 128.96">
  <defs>
    <style>
      .\33 b9be310-abaa-46b7-88a7-85b372f04ddd {
        isolation: isolate;
      }

      .\30 43ab49a-fd54-4bb3-88d8-dd28b0a9a0e5 {
        fill: #5b98d0;
      }
    </style>
  </defs>
  <title>group-16</title>
  <g>
    <g class="3b9be310-abaa-46b7-88a7-85b372f04ddd">
      <g class="3b9be310-abaa-46b7-88a7-85b372f04ddd">
        <path class="043ab49a-fd54-4bb3-88d8-dd28b0a9a0e5" d="M198.82,68.1a3.27,3.27,0,0,1,1.87-.72c.58,0,.87.33.87,1v.29a243.67,243.67,0,0,1-24.92,18.58q-9.93,6.19-18,6.19-6.48,0-6.48-6.34,0-9.34,9.51-19.22t16-9.86q3.6,0,3.6,4Q180.53,70,158.5,83.36V84.8q0,4.76,5,4.75a21.7,21.7,0,0,0,10.72-3.31,141.52,141.52,0,0,0,21-15.12Zm-24.91-5.62q-3.18,0-8.14,5.33a27.47,27.47,0,0,0-6.69,12.09,63,63,0,0,0,11.66-8.85q4.75-4.68,4.75-6.63C175.49,63.13,175,62.48,173.91,62.48Z" transform="translate(-1.01 -0.92)"/>
        <path class="043ab49a-fd54-4bb3-88d8-dd28b0a9a0e5" d="M243.89,68.1a3.3,3.3,0,0,1,1.87-.72c.58,0,.87.33.87,1v.29q-15,12.39-22.76,17.28-10.08,7.64-17,7.63c-4,0-6-2.39-6-7.2q0-9.64,12.46-28.58a202.38,202.38,0,0,1,28-34.06Q256.85,8.62,264.77,8.62q3.6,0,3.6,3.17,0,7.92-18.94,26.14a314.32,314.32,0,0,1-37.22,31q-5.33,10.23-5.33,15.55t3.75,5.33q3.74,0,9.79-4.32a136.78,136.78,0,0,0,19.87-14.4Zm17.28-54.87q-6,0-21.46,17.43A216.37,216.37,0,0,0,214.23,65.5a214.79,214.79,0,0,0,32.4-28.87q15.83-17.05,15.84-22.1A1.15,1.15,0,0,0,261.17,13.23Z" transform="translate(-1.01 -0.92)"/>
        <path class="043ab49a-fd54-4bb3-88d8-dd28b0a9a0e5" d="M289.1,68.1a3.92,3.92,0,0,1,1.95-.72c.52,0,.79.33.79,1v.29a181.24,181.24,0,0,1-23.47,17.71Q256.27,94,248.21,94q-6.35,0-6.34-7.56T251,70Q260.16,61,270.82,61c2.11.19,3.43.53,4,1a2.61,2.61,0,0,1,.79,2q0,1.31-2.67,4.68t-4.82,3.39c-1.63-.29-2.45-.87-2.45-1.73,0-.38.43-1,1.3-1.87,1.63-1.44,2.45-2.5,2.45-3.17s-.53-1-1.59-1q-5,.15-12.67,8.28T247.49,86.1q0,4,5.25,4t11.31-3.75A183.7,183.7,0,0,0,285.5,71Z" transform="translate(-1.01 -0.92)"/>
        <path class="043ab49a-fd54-4bb3-88d8-dd28b0a9a0e5" d="M310.7,79.62q8.07,0,19.3-9.08l2.45.72q-14.11,11.82-24.34,11.81a8.09,8.09,0,0,1-1.73-.14,36.13,36.13,0,0,1-8.49,7.7c-3.08,2-5.76,3-8.07,3-3.65,0-5.47-2-5.47-6.12s3.41-9.52,10.22-16.34a22.75,22.75,0,0,1-1.72-8.78,9.44,9.44,0,0,1,3.31-7.49,11.37,11.37,0,0,1,7.7-2.88,10.36,10.36,0,0,1,7.42,2.88q3,2.88,3,8.21,0,8.2-5.33,16.41A7.42,7.42,0,0,0,310.7,79.62Zm-20.45,7q0,2.88,3.75,2.88t9.5-7.63a18,18,0,0,1-6.91-7.06Q290.26,81.78,290.25,86.67Zm15.84-8.49q4.47-7.49,4.47-12.75c0-3.5-.87-6.09-2.59-7.77s-3.41-2.52-5-2.52c-3.37,0-5,1.72-5,5.18a24.8,24.8,0,0,0,2.3,10.3A17.59,17.59,0,0,0,306.09,78.18Z" transform="translate(-1.01 -0.92)"/>
        <path class="043ab49a-fd54-4bb3-88d8-dd28b0a9a0e5" d="M342.38,66.94l-.29-1.58q0-.72,3-.72c1.15,0,1.73.72,1.73,2.16s-1.66,4.63-5,9.58-5,7.51-5,7.7.19.29.58.29,4.82-3.36,13.32-10.08,13.6-10.08,15.33-10.08,2.59.6,2.59,1.8a7.64,7.64,0,0,1-1.44,4q-1.44,2.23-6,8.06t-4.9,6.27a1.79,1.79,0,0,0-.29,1c0,.38.31.57.94.57s5.35-3.26,14.18-9.79,13.87-9.79,15.12-9.79,1.87.53,1.87,1.58q0,2.88-6.33,10.08t-6.34,9.15c0,1.29.51,1.94,1.51,1.94s3.53-1.34,7.56-4q10.8-7.2,19.88-14.55L407.61,68a3.92,3.92,0,0,1,1.95-.72c.52,0,.79.29.79.87v.43Q380,93.88,372.77,93.87q-4.18,0-4.18-3.45,0-2.88,4.18-8.5t4.17-6.12c0-.34-.12-.5-.36-.5s-4.17,2.73-11.81,8.2-12.16,8.21-13.6,8.21a2.24,2.24,0,0,1-1.73-.79,2.45,2.45,0,0,1-.72-1.66q0-2.58,6.19-10.51,6.19-7.77,6.19-8.49c0-.48-.29-.72-.86-.72s-7.49,5.28-20.45,15.84l-7.2,5.76c-1.25,1-2.18,1.58-2.81,1.58a3.6,3.6,0,0,1-1.8-.5,1.66,1.66,0,0,1-.86-1.52q0-1,2.52-4.89t6.55-9.51Q342.39,68,342.38,66.94Z" transform="translate(-1.01 -0.92)"/>
        <path class="043ab49a-fd54-4bb3-88d8-dd28b0a9a0e5" d="M454.7,68.1a3.3,3.3,0,0,1,1.87-.72c.58,0,.87.33.87,1v.29a243.67,243.67,0,0,1-24.92,18.58q-9.93,6.19-18,6.19-6.48,0-6.48-6.34,0-9.34,9.51-19.22t16-9.86q3.6,0,3.6,4-.72,7.92-22.75,21.31V84.8q0,4.76,5,4.75a21.76,21.76,0,0,0,10.73-3.31,142,142,0,0,0,21-15.12Zm-24.91-5.62q-3.18,0-8.14,5.33A27.47,27.47,0,0,0,415,79.9a63,63,0,0,0,11.66-8.85q4.75-4.68,4.75-6.63C431.37,63.13,430.84,62.48,429.79,62.48Z" transform="translate(-1.01 -0.92)"/>
      </g>
    </g>
    <g class="3b9be310-abaa-46b7-88a7-85b372f04ddd">
      <g class="3b9be310-abaa-46b7-88a7-85b372f04ddd">
        <path class="043ab49a-fd54-4bb3-88d8-dd28b0a9a0e5" d="M83.89,120.44c-1.28,0-1.92-.75-1.92-2.24q0-5,16.88-39.6t16.88-40.08c0-1.49-.8-2.24-2.4-2.24q-6.89,0-30.56,21a224.79,224.79,0,0,1-29.92,48.64q-19.05,24-29,24c-2.24,0-3.36-1.34-3.36-4Q23.24,114.2,38.29,96.6a331.12,331.12,0,0,1,35.2-35q8.31-19,8.32-29.76Q81.81,4,42.61,4a85,85,0,0,0-18.4,1.76q-15,3-16.32,10.72.32,9,17.76,13Q33,31,40.37,32.76A35.44,35.44,0,0,1,52.85,38.2,11.18,11.18,0,0,1,58,47.64a9.11,9.11,0,0,1-1,3.44c-.64,1.44-1.42,2.16-2.32,2.16s-1.36-.53-1.36-1.6a3.92,3.92,0,0,1,.72-2.08,3.66,3.66,0,0,0,.72-1.76q0-4.48-18.88-9.12-8-1.92-15.92-4.4A41,41,0,0,1,6.53,27.4Q1,23,1,17.72T6.21,9a36.86,36.86,0,0,1,13-5,139.48,139.48,0,0,1,26.88-3q19.83,0,31.68,8T89.65,32.6Q89.65,39.8,85,52q25.76-20.64,33-20.64a4.81,4.81,0,0,1,3.6,1.6,5.49,5.49,0,0,1,1.52,3.92q0,2.32-3,10.48T106.21,78.68q-10.8,23.21-10.8,23.52c0,.22.16.43.48.64.64,0,1.65-1,3-2.88q15.51-21.6,46.56-50.16t53.76-38.48a20.53,20.53,0,0,1,7-1.92q2.4,0,2.4,1.68c0,1.12-.7,2.08-2.08,2.88s-3.76,2.35-7.12,4.64a75.58,75.58,0,0,0-6.64,4.88c-1.07,1-1.82,1.44-2.24,1.44s-.7-.32-.8-1-.35-1-.72-1a6.07,6.07,0,0,0-1.84.48Q167.89,32.6,138,61.4,106.44,92,93.49,111q-4.65,6.72-6.64,8.08A6.37,6.37,0,0,1,83.89,120.44Zm-55.68,3.68q5.91,0,18.8-17.2A243.87,243.87,0,0,0,70.13,69.08a379.3,379.3,0,0,0-30.32,32.48q-12.57,15.36-12.56,21.6A.85.85,0,0,0,28.21,124.12Z" transform="translate(-1.01 -0.92)"/>
      </g>
    </g>
  </g>
</svg>
